<?xml version="1.0" encoding="UTF-8"?>
<svg id="Emptybox" xmlns="http://www.w3.org/2000/svg" viewBox="0 0 2160 2160">
  <defs>
    <style>
      .cls-1 {
        fill: #2b4cf9;
      }

      .cls-2 {
        fill: #4052b5;
      }

      .cls-3 {
        fill: #1434e0;
      }

      .cls-4 {
        fill: none;
        stroke: #b9bedb;
        stroke-linecap: round;
        stroke-miterlimit: 10;
        stroke-width: 15.41px;
      }

      .cls-5 {
        fill: #9fa6cc;
      }

      .cls-6 {
        fill: #1d3eee;
      }

      .cls-7 {
        fill: #25368e;
      }

      .cls-8 {
        fill: #b9bedb;
      }

      .cls-9 {
        fill: #c0c5dd;
      }

      .cls-10 {
        fill: #d9dfff;
      }

      .cls-11 {
        fill: #babfdb;
      }
    </style>
  </defs>
  <circle class="cls-10" cx="1080" cy="1080" r="861.29"/>
  <path class="cls-10" d="M2160,899.74v-93.01c0-36.93-26.28-66.88-58.7-66.88h-207.18c-32.42,0-58.7-29.94-58.7-66.88v-93.01c0-36.93,26.28-66.88,58.7-66.88h6.54c32.42,0,58.7-29.94,58.7-66.88h0v-93.01c0-36.93-26.28-66.88-58.7-66.88H395.42c-32.42,0-58.7,29.94-58.7,66.88h0v93.01c0,36.93,26.28,66.88,58.7,66.88h0c32.42,0,58.7,29.94,58.7,66.88v93.01c0,36.93-26.28,66.88-58.7,66.88H168.44c-32.42,0-58.7,29.94-58.7,66.88h0v93.01c0,36.93,26.28,66.88,58.7,66.88h89.06c32.42,0,58.7,29.94,58.7,66.88v93.01c0,36.93-26.28,66.88-58.7,66.88h-.22c-32.42,0-58.7,29.94-58.7,66.88h0v93.01c0,36.93,26.28,66.88,58.7,66.88h12.89c32.42,0,58.7,29.94,58.7,66.88v93.01c0,36.93-26.28,66.88-58.7,66.88H58.7c-32.42,0-58.7,29.94-58.7,66.88v93.01c0,36.93,26.28,66.88,58.7,66.88H1932.18c32.42,0,58.7-29.94,58.7-66.88h0v-93.01c0-36.93-26.28-66.88-58.7-66.88h-50.89c-32.42,0-58.7-29.94-58.7-66.88h0v-93.01c0-36.93,26.28-66.88,58.7-66.88h120c32.42,0,58.7-29.94,58.7-66.88h0v-93.01c0-36.93-26.28-66.88-58.7-66.88h-36.4c-32.42,0-58.7-29.94-58.7-66.88h0v-93.01c0-36.93,26.28-66.88,58.7-66.88h136.42c32.42,0,58.7-29.94,58.7-66.88h0Z"/>
  <line class="cls-4" x1="1606.36" y1="465.28" x2="1772.26" y2="465.28"/>
  <line class="cls-4" x1="1606.36" y1="513.1" x2="1772.26" y2="513.1"/>
  <line class="cls-4" x1="1606.36" y1="560.92" x2="1772.26" y2="560.92"/>
  <line class="cls-4" x1="242.11" y1="1480.92" x2="408.02" y2="1480.92"/>
  <line class="cls-4" x1="242.11" y1="1528.74" x2="408.02" y2="1528.74"/>
  <line class="cls-4" x1="242.11" y1="1576.56" x2="408.02" y2="1576.56"/>
  <line class="cls-4" x1="198.35" y1="140.74" x2="364.26" y2="140.74"/>
  <line class="cls-4" x1="198.35" y1="188.56" x2="364.26" y2="188.56"/>
  <line class="cls-4" x1="198.35" y1="236.38" x2="364.26" y2="236.38"/>
  <circle class="cls-8" cx="1812.64" cy="329.51" r="70.91"/>
  <circle class="cls-8" cx="1625.51" cy="380.69" r="36.77"/>
  <circle class="cls-8" cx="1718.87" cy="155.98" r="52.53"/>
  <circle class="cls-8" cx="474.4" cy="1991.93" r="84.37"/>
  <circle class="cls-8" cx="307.57" cy="2034.02" r="43.95" transform="translate(-1348.19 813.23) rotate(-45)"/>
  <circle class="cls-8" cx="255.95" cy="1888.13" r="25.35"/>
  <circle class="cls-8" cx="381.65" cy="1823.19" r="60.77"/>
  <circle class="cls-8" cx="916.36" cy="687.69" r="84.37" transform="translate(-217.87 849.38) rotate(-45)"/>
  <circle class="cls-8" cx="919.78" cy="515.66" r="43.95" transform="translate(91.39 1168.09) rotate(-67.5)"/>
  <circle class="cls-8" cx="1212.51" cy="541.34" r="38.04"/>
  <circle class="cls-8" cx="1074.12" cy="504.37" r="25.35"/>
  <circle class="cls-8" cx="1103.58" cy="642.75" r="60.77"/>
  <g>
    <polygon class="cls-3" points="1782.45 1174.47 1221.54 1476.6 1221.54 791.26 1782.45 616.15 1782.45 1174.47"/>
    <path class="cls-1" d="M1221.54,791.26l-662.14-66.98-135.7-200.21c-4.77-7.04-2.93-16.62,4.11-21.4,2.55-1.73,5.56-2.65,8.65-2.65h623.74c5.74,0,11,3.19,13.66,8.28l147.69,282.97Z"/>
    <polygon class="cls-2" points="1221.54 1476.6 559.4 1409.62 559.4 724.27 1221.54 791.26 1221.54 1476.6"/>
    <path class="cls-1" d="M1053.17,1659.98l-675.61-26.96,181.85-223.4,662.14,66.98-156.17,178.13c-3.07,3.5-7.55,5.42-12.2,5.24Z"/>
    <polygon class="cls-6" points="1221.54 791.26 1782.45 616.15 1096.84 552.33 1221.54 791.26"/>
    <polygon class="cls-7" points="559.4 1409.62 1221.54 1100.44 1221.54 791.26 559.4 724.27 559.4 1409.62"/>
    <path class="cls-10" d="M599.1,1186.29s72.34-31.65,91.55-9.04c19.22,22.61,62.17,32.78,62.17,32.78l37.3-63.3,101.73,47.47,55.38,75.73-36.17,89.29s-73.47-1.13-108.51,13.56c-35.04,14.69-126.59,15.82-126.59,15.82l-41.82-80.25s-53.12-77.99-35.04-122.07Z"/>
    <path class="cls-11" d="M752.82,1210.02c6.96,6.16,13.64,12.56,20.19,19.06,6.6,6.46,12.96,13.12,19.34,19.77,6.24,6.76,12.66,13.38,18.71,20.3,6.11,6.87,12.33,13.65,18.23,20.7l-13.02,6.44c-2.95-12.29-5.87-24.59-8.48-36.95-2.67-12.35-4.95-24.79-7.34-37.21-4.35-24.93-8.41-49.92-10.33-75.4,9.23,23.83,16.31,48.14,23.11,72.51,3.18,12.24,6.47,24.45,9.38,36.75,2.96,12.29,5.62,24.64,8.24,37.01l.02,.11c.86,4.04-1.72,8-5.76,8.86-2.71,.57-5.51-.4-7.29-2.52-5.89-7.06-11.46-14.38-17.14-21.61-5.73-7.19-11.11-14.67-16.66-22.01-5.41-7.46-10.84-14.9-16.03-22.54-5.24-7.6-10.35-15.31-15.18-23.25Z"/>
    <path class="cls-11" d="M891.85,1194.2c-4.31,9.31-9.17,18.24-14.01,27.19-4.97,8.86-9.96,17.7-15.24,26.36-5.12,8.76-10.63,17.25-16,25.84-5.42,8.56-11.14,16.91-16.69,25.37l-7.85-11.84c10.29-2.11,20.63-4.03,30.98-5.87,10.39-1.62,20.72-3.56,31.17-4.93,10.41-1.54,20.87-2.8,31.36-3.98,10.52-1,21.02-2.07,31.67-2.41-9.96,3.78-20.07,6.82-30.16,9.95-10.13,2.94-20.28,5.8-30.48,8.37-10.17,2.75-20.45,4.93-30.67,7.43-10.26,2.28-20.54,4.48-30.85,6.49l-.16,.03c-4.13,.8-8.13-1.9-8.94-6.03-.4-2.04,.06-4.15,1.25-5.84,5.83-8.28,11.49-16.67,17.45-24.85,6.01-8.16,11.88-16.4,18.14-24.38,6.11-8.09,12.49-15.99,18.91-23.86,6.54-7.79,13.07-15.59,20.13-23.03Z"/>
    <path class="cls-11" d="M911.06,1359.22c-8.34-3.95-16.24-8.52-24.18-13.03-7.84-4.65-15.6-9.38-23.21-14.34-15.31-9.78-30.13-20.23-44.67-31.04l11.13-2.2c-8.79,14.33-17.9,28.46-27.68,42.2-4.78,6.93-9.86,13.68-14.96,20.42-5.22,6.66-10.44,13.33-16.2,19.67,2.96-8.04,6.45-15.75,9.94-23.46,3.61-7.64,7.25-15.27,11.18-22.71,7.65-15.02,15.96-29.64,24.6-44.07,2.17-3.62,6.86-4.8,10.48-2.63,0,0,0,0,0,0l.58,.39,.07,.05c14.62,10.71,28.97,21.79,42.83,33.54,6.97,5.81,13.79,11.84,20.54,17.95,6.65,6.26,13.34,12.45,19.57,19.26Z"/>
    <path class="cls-11" d="M599.1,1186.29c39.05,14.66,77.14,31.32,115.09,48.26,18.89,8.65,37.82,17.21,56.53,26.23,18.81,8.8,37.45,17.97,56.08,27.15l.06,.03c3.69,1.82,5.21,6.29,3.39,9.98-.6,1.22-1.53,2.26-2.68,2.99-12.3,7.83-24.86,15.25-37.3,22.87-12.41,7.66-25.09,14.89-37.62,22.36-12.66,7.27-25.25,14.64-38.06,21.67-12.74,7.13-25.62,14.06-38.63,20.77,11.58-8.96,23.3-17.7,35.17-26.21,11.8-8.62,23.8-16.92,35.74-25.31,12.07-8.19,23.99-16.62,36.18-24.62,12.17-8.04,24.21-16.28,36.51-24.11l.76,13c-18.78-8.87-37.55-17.77-56.15-27.02-18.7-9.05-37.18-18.54-55.7-27.95-36.87-19.18-73.6-38.64-109.38-60.09Z"/>
  </g>
  <path class="cls-9" d="M928.69,1873.86s-55.11,56.55-81.42,42.84c-26.31-13.71-69.93-6.97-69.93-6.97l-10.73,72.68-112.11-5.69-79.82-49.31-.1-96.34s68.49-26.61,95.42-53.41c26.93-26.8,111.33-62.31,111.33-62.31l68.95,58.61s78.57,52.26,78.41,99.9Z"/>
  <path class="cls-5" d="M777.34,1909.73c-17.08-7.03-33.77-14.79-50.39-22.69-8.26-4.05-16.59-7.96-24.77-12.15-8.2-4.15-16.45-8.21-24.57-12.52l6.43-7.25c14.7,20.56,28.9,41.47,42.83,62.57,13.76,21.22,27.35,42.55,39.75,64.72-16.49-19.31-31.79-39.46-46.91-59.73-14.96-20.38-29.65-40.95-43.84-61.87l-.04-.05c-1.54-2.28-.95-5.37,1.33-6.92,1.53-1.04,3.51-1.14,5.14-.27,8.11,4.32,16.1,8.88,24.13,13.36,8.05,4.44,15.96,9.15,23.93,13.73,15.84,9.36,31.62,18.85,47,29.07Z"/>
  <path class="cls-5" d="M654.49,1976.73c2.2-20.23,5.37-40.25,8.87-60.21,3.44-19.96,7.44-39.81,11.58-59.62l7.82,5.34-26.43,17.19c-8.94,5.54-17.76,11.25-26.79,16.65-8.97,5.49-18.04,10.83-27.14,16.12-9.17,5.18-18.31,10.41-27.73,15.22,8.13-6.76,16.53-13.11,24.91-19.5,8.44-6.29,16.92-12.53,25.5-18.61,8.51-6.18,17.24-12.04,25.85-18.07l26.2-17.54c2.34-1.57,5.51-.94,7.08,1.4,.77,1.16,1.04,2.58,.74,3.94-4.34,19.77-8.82,39.51-13.87,59.13-4.99,19.63-10.3,39.2-16.59,58.55Z"/>
  <path class="cls-5" d="M574.57,1831.07c9.07,1.1,18.02,2.68,26.98,4.22,8.93,1.65,17.84,3.37,26.71,5.27,17.76,3.72,35.38,7.95,52.94,12.46l-6.3,4.14c1.45-8.28,2.72-16.59,4.31-24.85,1.57-8.26,3.07-16.53,4.84-24.76,3.42-16.48,7.15-32.9,11.85-49.18-.62,16.93-2.21,33.7-4.11,50.42-.88,8.37-2.04,16.7-3.14,25.04-1.08,8.34-2.46,16.63-3.67,24.95-.4,2.75-2.96,4.66-5.71,4.26l-.51-.1-.08-.02c-17.57-4.46-35.07-9.2-52.43-14.44-8.69-2.59-17.34-5.34-25.97-8.18-8.6-2.94-17.22-5.84-25.7-9.23Z"/>
  <path class="cls-5" d="M928.69,1873.86c-20.81-.06-41.59-.64-62.36-1.17-20.77-.61-41.53-1.5-62.29-2.41-41.5-2-82.97-4.45-124.41-7.36h-.04c-2.74-.2-4.8-2.58-4.6-5.31,.06-.91,.38-1.78,.91-2.53,8.45-11.88,17.16-23.58,25.74-35.37,8.56-11.81,17.39-23.42,26.07-35.14,8.82-11.62,17.53-23.32,26.55-34.8,9-11.5,17.84-23.1,27.07-34.43-7.67,12.44-15.72,24.6-23.62,36.88-7.88,12.29-16.07,24.36-24.14,36.51-8.21,12.05-16.28,24.21-24.61,36.17-8.31,11.98-16.5,24.05-24.95,35.94l-3.73-7.84c41.48,2.34,82.92,5.19,124.33,8.53,20.7,1.74,41.4,3.5,62.09,5.54,20.68,2.13,41.36,4.19,62.01,6.78Z"/>
  <line class="cls-4" x1="1688.45" y1="1869.88" x2="1854.36" y2="1869.88"/>
  <line class="cls-4" x1="1688.45" y1="1917.7" x2="1854.36" y2="1917.7"/>
  <line class="cls-4" x1="1688.45" y1="1965.52" x2="1854.36" y2="1965.52"/>
</svg>