<?xml version="1.0" encoding="UTF-8"?>
<svg id="ConceptofUnknownthings" xmlns="http://www.w3.org/2000/svg" viewBox="0 0 2000 2000">
  <defs>
    <style>
      .cls-1 {
        fill: #0e228c;
      }

      .cls-2 {
        opacity: .08;
      }

      .cls-2, .cls-3 {
        isolation: isolate;
      }

      .cls-2, .cls-3, .cls-4 {
        fill: #5570ff;
      }

      .cls-5 {
        fill: #0b1b70;
      }

      .cls-6 {
        fill: #b1bdfc;
      }

      .cls-7 {
        fill: #5968b9;
      }

      .cls-8 {
        fill: #d9dfff;
      }

      .cls-3 {
        opacity: .2;
      }

      .cls-9 {
        fill: #2a4af4;
      }
    </style>
  </defs>
  <g>
    <ellipse class="cls-2" cx="828.87" cy="1935.54" rx="624.45" ry="61.85"/>
    <path class="cls-2" d="M392.75,1889.42c-3.15-2.96-461.67-643.52-81.3-844.45C829.05,771.27,139.79-153.19,1095.35,18.48c920.01,165.19-189.63,895.01,187.22,1161.68,247.22,174.82,390.74,594.82-126.3,729.64-327.97,85.19-683.71,54.26-763.53-20.37h0Z"/>
  </g>
  <g>
    <ellipse class="cls-2" cx="1162.2" cy="1940.76" rx="624.45" ry="61.85"/>
    <path class="cls-2" d="M726.08,1894.65c-3.15-2.96-461.67-643.52-81.3-844.45C1162.38,776.49,473.12-147.96,1428.68,23.71c920.01,165.19-189.63,895.01,187.22,1161.68,247.22,174.82,390.74,594.82-126.3,729.64-327.97,85.19-683.71,54.26-763.53-20.37h0Z"/>
  </g>
  <g>
    <path class="cls-6" d="M1232.65,1149.05l13.15-18.33c3.52-6.85,19.63-5.74,24.82-.19,3.52,3.89,.56,14.26-1.11,17.78-4.07,8.7-24.63,42.41-24.63,42.41,0,0-10,4.44-18.7-6.11-6.11-7.04,3.7-31.67,6.48-35.56Z"/>
    <path class="cls-9" d="M1266.72,1400.9s-6.3-44.07-21.48-88.52c-15.19-44.44-.37-124.63-.37-124.63,0,0-21.3-12.41-24.63-5.74-3.33,6.67-27.78,115.19-27.78,115.19,0,0-.93,65.74,13.52,86.3,8.7,12.22,45.19,30,60.74,17.41h0Z"/>
    <path class="cls-6" d="M1200.24,1905.91s-2.78,14.63-2.59,26.3c1.67,8.15,0,10.56,0,10.56l-33.33-2.59s14.81-6.67,13.7-38.33c-1.11-31.85,22.22,4.07,22.22,4.07h0Z"/>
    <path class="cls-5" d="M1198.02,1934.61s-14.44,5-28.89,1.3c-16.85,7.22-28.7,10-44.07,11.85-15.37,1.85-12.59,13.33,13.52,11.85,26.11-1.67,44.44-.56,50.37,0,5.74,.56,15.19,1.3,15.56-2.59,.56-3.7-1.67-23.7-6.48-22.41Z"/>
    <path class="cls-1" d="M1188.02,1497.2s-21.48,192.96-22.78,218.15-1.3,33.89,0,49.26,12.59,144.26,12.59,144.26l21.85,1.3s16.3-140.56,22.78-164.63c6.3-24.07,31.3-145.93,31.3-145.93l-28.7-124.63-37.04,22.22h0Z"/>
    <path class="cls-6" d="M1292.09,1908.5s-1.11,10.74,0,22.41c2.22,7.96,.93,10.56,.93,10.56l-33.52,.19s14.07-7.78,10.56-39.44c-3.7-31.67,22.04,6.3,22.04,6.3h0Z"/>
    <path class="cls-5" d="M1291.17,1934.61s-14.44,5-28.89,1.3c-16.85,7.22-28.7,10-44.07,11.85-15.37,1.85-12.59,13.33,13.52,11.85,26.11-1.67,44.44-.56,50.37,0,5.74,.56,15.19,1.3,15.56-2.59,.37-3.7-1.67-23.7-6.48-22.41Z"/>
    <path class="cls-1" d="M1231.17,1497.2s18.15,193.71,16.85,218.89c-1.3,25.19,22.04,192.96,22.04,192.96l22.04,.37s5.74-147.41,5.74-172.22,7.78-215.93,7.78-215.93l-32.41-46.3-42.04,22.22Z"/>
    <path class="cls-9" d="M1218.57,1362.94s98.52,6.85,104.82,29.07c6.3,22.22-2.04,187.59-2.04,187.59,0,0-96.85,27.04-143.52-17.96,3.33-15.93,17.59-173.71,40.74-198.71Z"/>
    <path class="cls-6" d="M1253.94,1345.53l-9.26,34.82s3.15,15.74,20.56,14.26,19.26-11.67,19.26-11.67l-6.85-39.44c.19,0-16.67-2.96-23.7,2.04Z"/>
    <path class="cls-8" d="M1243.02,1291.09s-21.85,32.96-17.78,44.44c4.07,11.48,19.26,20.93,52.96,21.3,11.3-2.78,20.56-38.15,19.44-45.37-6.67-46.48-43.15-29.44-54.63-20.37Z"/>
    <path class="cls-5" d="M1237.09,1294.23c11.85,11.11,18.15,9.07,33.7,8.52,9.44-.37,13.33,7.22,10.93,12.04-2.41,4.81-12.78,14.81-5.19,15.56,7.78,.74,7.22-11.48,12.59-6.3,5.37,5.37-6.3,19.44-.56,22.41,5.74,2.96,25.56-3.15,20.74-16.48-4.63-13.33,37.04-49.63-31.48-70-17.59-5.19-23.89-3.33-29.63-3.7-13.33-.93-12.78,36.48-11.11,37.96h0Z"/>
  </g>
  <g>
    <path class="cls-3" d="M836.53,1339.42c0-121.11,13.7-216.48,41.11-286.67,27.41-70,71.67-130.74,133.15-182.22,61.3-51.48,107.96-98.52,139.82-141.11,31.85-42.78,47.96-89.82,47.96-141.11,0-125.19-53.89-187.78-161.67-187.78-49.82,0-90,18.33-120.56,54.63-30.74,36.48-46.85,85.74-48.52,147.96H447.27c1.67-165.74,53.89-294.82,156.67-387.41,102.78-92.41,221.3-144.82,407.04-144.82s353.71,48.89,455.37,134.26c101.48,85.37,152.41,206.85,152.41,364.26,0,68.89-13.7,131.48-41.11,187.78-27.41,56.3-71.3,114.08-131.85,172.78l-142.96,133.15c-40.56,38.89-68.89,78.89-84.63,120-15.74,41.11-24.44,93.15-26.11,156.11h-355.56v.19Zm-50.93,378.15c0-61.3,57.22-161.11,101.67-200.56,0,0,58.15-15.74,124.63-15.74s127.96,25.74,172.22,65.19c44.26,39.44,66.48,89.82,66.48,151.11s-22.22,111.67-66.48,151.11c-44.44,39.44-99.63,59.07-165.93,59.07s-121.67-19.63-165.93-59.07c-44.44-39.44-66.67-89.82-66.67-151.11h0Z"/>
    <path class="cls-4" d="M780.79,1339.42c0-121.11,13.7-216.48,41.11-286.67,27.41-70,71.67-130.74,133.15-182.22,61.3-51.48,107.96-98.52,139.82-141.11,31.85-42.78,47.96-89.82,47.96-141.11,0-125.19-53.89-187.78-161.67-187.78-49.82,0-90,18.33-120.56,54.63-30.74,36.48-46.85,85.74-48.52,147.96H391.71c1.48-165.56,53.7-294.63,156.48-387.23,102.78-92.41,247.04-138.52,432.78-138.52s328.15,42.78,429.63,128.15c101.48,85.37,152.41,206.85,152.41,364.26,0,68.89-13.7,131.48-41.11,187.78-27.41,56.3-71.3,114.08-131.85,172.78l-142.96,133.15c-40.56,38.89-68.89,78.89-84.63,120-15.74,41.11-24.44,93.15-26.11,156.11h-355.56v-.19Zm-51.11,378.15c0-61.3,22.22-111.67,66.48-151.11,44.26-39.44,99.63-59.07,165.93-59.07s121.67,19.63,165.93,59.07c44.26,39.44,66.48,89.82,66.48,151.11s-22.22,111.67-66.48,151.11c-44.44,39.44-99.63,59.07-165.93,59.07s-121.67-19.63-165.93-59.07c-44.26-39.44-66.48-89.82-66.48-151.11Z"/>
    <path class="cls-6" d="M1328.94,1625.53s-16.3,5.56-20.37,36.85c-.37,2.78,4.81,2.41,5.37-.37l8.52-17.41c2.04,5-1.3,5.56-2.41,10.56l-3.89,12.78c-1.48,5,2.96,9.63,7.96,8.33,4.63-1.3,9.63-2.96,11.67-5.19,4.44-4.81,15.37-33.15,11.85-40.19-3.52-6.85-11.11-11.85-18.7-5.37h0Z"/>
    <path class="cls-9" d="M1294.5,1387.94c9.81-11.85,28.7-10.37,37.22,2.59,14.81,22.41,42.41,68.33,42.22,97.59,1.3,33.89-26.3,143.15-26.3,143.15,0,0-12.78,0-18.7-5.56,.37-8.89,4.26-113.15,4.26-113.15,0,0-37.96-56.11-46.3-82.04-5.19-16.3-.93-32.22,7.59-42.59h0Z"/>
    <path class="cls-5" d="M556.34,1251.46s-.93-31.48,10.19-44.63c14.44-17.22,50.93-18.89,67.04-7.22,17.96,12.96,30.37,43.52,21.3,68.15,27.41,10.74,57.41,24.26,45.93,97.22-23.33,147.04-208.15,83.89-165.93-46.11,9.44-28.52,21.48-67.41,21.48-67.41h0Z"/>
    <path class="cls-7" d="M656.9,1869.98s2.59,13.7,2.41,24.44c-1.48,7.59,0,9.81,0,9.81l30.93-2.41s-13.7-6.11-12.78-35.74c1.11-29.44-20.56,3.89-20.56,3.89Z"/>
    <path class="cls-5" d="M658.94,1896.83s13.52,4.63,26.85,1.11c15.74,6.67,26.67,9.26,40.93,10.93,14.26,1.67,11.67,12.41-12.59,10.93-24.26-1.48-41.3-.56-46.67,0-5.37,.56-14.07,1.11-14.44-2.41-.37-3.33,1.48-21.67,5.93-20.56Zm9.44-406.11s20,179.26,21.11,202.59c1.11,23.33,1.11,31.48,0,45.74s-11.85,133.89-11.85,133.89l-20.37,1.11s-15.19-130.56-21.11-152.78c-5.93-22.41-29.07-135.37-29.07-135.37l26.67-115.74,34.63,20.56Z"/>
    <path class="cls-7" d="M571.71,1872.57s1.11,10,0,20.74c-2.04,7.41-.74,9.63-.74,9.63l31.11,.19s-13.15-7.22-9.81-36.67c3.33-29.26-20.56,6.11-20.56,6.11Z"/>
    <path class="cls-5" d="M572.46,1896.83s13.52,4.63,26.85,1.11c15.74,6.67,26.67,9.26,40.93,10.93,14.26,1.67,11.67,12.41-12.59,10.93-24.26-1.48-41.3-.56-46.67,0s-14.07,1.11-14.44-2.41c-.37-3.33,1.67-21.67,5.93-20.56Zm55.74-406.11s-16.85,179.82-15.74,203.15c1.11,23.33-20.37,179.26-20.37,179.26l-20.37,.37s-5.19-136.85-5.19-160c0-21.85-7.22-200.56-7.22-200.56l30.19-42.96,38.7,20.74Z"/>
    <path class="cls-7" d="M691.9,1236.27s-13.89-11.85-16.3-15.93c-6.85-10.56-17.96-12.96-25.19-13.33-3.7-.19-6.67,2.78-6.67,6.3,0,.93,.56,1.85,1.3,2.41l18.15,8.7c.93,.37,.93,.56,1.67,1.3l.74,1.48c1.3,1.67,1.11,2.41-1.11,2.78l-2.41-.19c-1.11,.19-9.44-2.96-10.37-3.52-1.48-.74-3.33,.56-3.15,2.22,0,1.3,.74,2.59,2.04,3.15l14.07,8.89,11.48,4.07c25.56,20.37,47.22,35.37,49.82,41.67-26.67,19.07-78.7,42.22-78.7,42.22l21.48,24.26s65.37-34.63,80.74-47.22c32.41-30.93-31.3-57.41-57.59-69.26h0Z"/>
    <path class="cls-4" d="M649.49,1386.09c-2.78,6.48,18.33,96.48,21.85,117.22,0,0-.37,0-1.3-.19-9.26-1.3-65.56-8.89-110.93,10.19l-4.07-127.04-.19-4.63s0-4.81,.37-12.22c1.11-15.19,4.07-40.56,13.89-57.04,5-8.52,11.67-14.63,20.74-15.37,28.33-2.78,50.74,9.44,61.48,12.78,17.78,5.56,28.33,2.22,28.33,2.22,0,0,14.07,35,7.04,41.3l-29.63,12.41c.37-.37-4.81,13.7-7.59,20.37h0Z"/>
    <path class="cls-7" d="M642.09,1216.08s17.96,41.67,4.44,60.56c-10.19,14.26-27.96,14.63-27.96,14.63v20.56s-2.04,1.85-5.56,2.04c-6.3,.37-22.78-9.63-22.78-9.63v-80.74l51.85-7.41h0Zm-90.19,161.11s14.26,72.41,20.56,90.74c3.33,14.63,96.67,18.89,102.59,20,11.3,10,17.59,9.63,21.3,9.63,2.78,0,1.48,.56,16.3,1.48,6.67,.37,11.11-6.48,7.96-12.41-7.78-7.59-7.22-4.81-17.78-7.04-11.3-2.22-14.07-3.52-12.22-5.56,11.3-12.59,1.11-15.19-10.19-2.22-.74,.74-2.04,.19-3.15,.19-21.67-5.19-72.78-19.63-79.82-19.82-8.15-30.74-10.37-85.37-10.37-85.37l-35.19,10.37h0Z"/>
    <path class="cls-4" d="M546.34,1389.79s-6.11-59.63,11.48-73.89,37.59,8.7,36.67,38.89c-.93,30-.37,40.93-.37,40.93,0,0-27.04,9.07-47.78-5.93h0Z"/>
    <path class="cls-5" d="M643.75,1211.45s-9.26,53.7-31.67,44.07c-20.37-8.7-10.19-.37-28.89,17.59-5.56,5.37-1.11-56.85-1.11-56.85l61.67-4.81h0Z"/>
  </g>
</svg>