<?xml version="1.0" encoding="UTF-8"?>
<svg id="SignUpform" xmlns="http://www.w3.org/2000/svg" xmlns:xlink="http://www.w3.org/1999/xlink" viewBox="0 0 2000 2000">
  <defs>
    <style>
      .cls-1, .cls-2 {
        fill: #fff;
      }

      .cls-3 {
        fill: #eff0f4;
      }

      .cls-3, .cls-2, .cls-4, .cls-5, .cls-6, .cls-7, .cls-8, .cls-9 {
        fill-rule: evenodd;
      }

      .cls-10 {
        font-family: Couture-Bold, Couture;
        font-size: 43.13px;
        font-weight: 700;
      }

      .cls-11 {
        clip-path: url(#clippath-2);
      }

      .cls-4 {
        fill: #97a7ff;
      }

      .cls-12 {
        clip-path: url(#clippath-1);
      }

      .cls-5 {
        fill: #0028fe;
      }

      .cls-6 {
        fill: #a5aac6;
      }

      .cls-13 {
        clip-path: url(#clippath);
      }

      .cls-14 {
        fill: #d9dfff;
      }

      .cls-15 {
        fill: none;
      }

      .cls-16 {
        clip-path: url(#clippath-3);
      }

      .cls-7 {
        fill: #cfd2e1;
      }

      .cls-8 {
        fill: #535977;
      }
    </style>
    <clipPath id="clippath">
      <path class="cls-15" d="M1276.78,1073.54c-37.09,55.57-410.61,86.04-459.16,17.76-75.04-105.44,141.07-406.79,141.07-406.79-2.79-14.4-3.31-49.22,8.04-62.81,17.19-20.65-8.38-40.27,7.53-44.72,20.44-5.7,36.82,13.61,72.43,23.26,21.1,5.66,18.15,61.04-1.79,92.04-7.1,11-20.66,12-20.66,12,0,0-83.36,205.13-65.66,244.42,21.96,48.59,126.51-7.36,287.15-30.03,76.82-10.86,51.49,124.23,31.05,154.86h0Z"/>
    </clipPath>
    <clipPath id="clippath-1">
      <path class="cls-15" d="M1243.18,1526.3c9.51-179.39-53.55-335.52-47.81-438.07,3.68-65.06-24.49-161.61,82.43-177.26,91.67-13.41,204.96,10.82,227.29,35.48,45.21,49.76,28.79,319.59-14.17,356.39-86.11,54.97-180.47,168.53-247.74,223.46h0Z"/>
    </clipPath>
    <clipPath id="clippath-2">
      <path class="cls-15" d="M1494.5,949.7c61.63,26.02,187.12,380.09,114.98,446.06-72.14,65.96-547.72-50.24-547.72-50.24-13.63,5.44-47.64,12.49-63.2,3.89-23.42-13-9.01-42.02-16.37-56.8-9.44-19.01-76.85,23.76-74.13-13.05,1.69-21.77,110.98-33.95,145.17-20.16,12.23,4.92,15.75,18.06,15.75,18.06,0,0,338.73,31.37,374,6.6,43.61-30.69-65.71-141.32-48.69-266.38,10.47-76.87,66.37-82.29,100.21-67.97h0Z"/>
    </clipPath>
    <clipPath id="clippath-3">
      <path class="cls-15" d="M1292.36,908.54s36.15-26.74,27.72-54.89c-2.16-7.39-18.48,13.44-33.19,4.42-20.09-12.4-24.94-83.86-2.24-121.04,14.08-23.04,63.59-36.87,79.74-21.17,16.15,15.7,22.51,82.6,16.95,115.36-8.79,52.26,38.84,83.7,38.84,83.7,0,0-79.11,63.32-99.02,115.87-5.83,15.43-28.79-122.26-28.79-122.26h0Z"/>
    </clipPath>
  </defs>
  <path class="cls-14" d="M883.2,778.5c.15,.75,.54,1.45,.7,2.2,1.26,7.01,2.06,11.78,1.23,17.91-2,13.1-11.15,25.79-5.86,42.39,5.7,23.51,34.5,37.81,42.25,14.5,4.44-15.4-3.12-34.13-11.58-51.14-4.71-9.12-10.14-17.85-16.22-26.11,6.66-.44,13.22-1.9,19.43-4.34,1.31-.52,2.38-.99,3.69-1.51,.37,.19,.98,.32,1.35,.51,11.42-4.84,20.79-9.54,32.4-12.6,19.98-5.75,45.28-11.51,47.17-32.88,.2-6.78-6.01-13.6-12.52-18.54-8.78-5.89-19.51-8.15-29.92-6.3-17.94,2.24-30.33,12.97-37.04,26.22-4.13,8.33-6.04,17.78-7.33,27.38-.29,4.72-1.4,9.87-.23,14.83-7.62,3.06-16.05,4.2-25,4.4-.44-.12-.9-.12-1.33,0-3.2,.08-6.4-.07-9.58-.45-.73-14.64,5.24-28.26,10.46-42.25,1.71-5.52,4.02-10.91,4.62-16.99,4.59,1.4,9.35,2.2,14.14,2.4,8.86,.59,16.4-4.53,13.02-12.94-6.04-11.26-26.97-16.73-38.32-18.91-9.67-1.47-19.48-1.72-29.21-.73-1.34,.04-2.67,.22-3.97,.52,5.7-5.53,11.16-11.01,16.5-16.73,4.76-4.83,9.26-10.12,13.89-15.18,15.15,3.24,28.94,11.68,42.96,20.07,17.03,10.91,34.84,22.7,52.29,17.19,14.67-5.22,13.9-23.74-2.79-34.98-16.93-11.19-37.23-16.01-55.19-17.14-7.3-.47-14.62-.33-21.89,.42-.72,.14-1.57,.05-2.53,.24l12.52-13.36c7.08-7.36,14.29-14.48,21.36-21.84,.85,.09,1.94,.14,3.03,.18,4.63,.65,6.57,.78,11.33,1.66,11.85,2.59,23.87,6.45,35.7,8.53,11.34,1.88,22.87,2.31,34.31,1.28,8.32-.86,17.11-1.81,23.99-5.24,12.45-6.34,13.66-20.84-4.08-31.09-15.5-8.01-33.06-11.15-50.37-9.01-4.56,.9-10,1.19-14.04,3.02l-3.4-3.22,.48-.09c9.83-5.31,20.68-9.26,31.77-13.26,14.56-4.94,30.11-9.56,45.87-14.74,6.57,3.63,12.26,6.66,19.03,12.08,18.15,14.32,31.1,37.44,48.75,54.2,12.11,11.62,43.83,32.08,59.09,29.34,31.48-5.68-28.38-50.68-42.63-61.36-16.36-12.08-33.97-22.1-51.77-31.04-5.9-3.02-11.99-5.63-18.24-7.82,20.89-6.97,41.53-14.4,60.66-23.09,3.45-1.46,6.77-3.15,9.85-4.79l.37,.19c2.33,.84,5.04,1.86,7.51,2.93,3.93,1.3,11.98,5.68,13.59,6.66,31.4,18.45,51.02,50.64,85.15,67.77,14.36,7.55,32.47,12.28,43.94,5.61,18.94-16.17-23-46.3-42.28-58.84-18.26-11.19-38.06-18.44-57.76-23.64-9.87-2.75-19.95-4.67-30.14-5.73-3.18-.4-6.38-.55-9.58-.45,23.67-12.4,45.79-27.55,65.91-45.13,.98,.32,2.07,.37,3.05,.7,5.64,1.59,11.18,3.53,16.59,5.81,13.92,5.82,24.48,12.29,37.09,21.48,15.6,11.19,31.28,24.44,49.88,29.08,6.46,1.06,13.88,1.93,18.23-1.25,3.74-3.33,4.57-9.46,.71-14.92-5.32-8.55-14.79-14.99-23.75-21-8.17-5.47-16.71-10.38-25.55-14.68-10.73-5.41-21.98-9.71-33.58-12.84-9.27-2.62-18.7-4.66-28.22-6.11,3.47-3.8,6.95-7.59,10.29-11.62l.24-.05c14.43-8.03,31.37-13.96,41.01-26.75,3.89-5.43,7.28-11.29,6.85-18.72,.16-10.66-15.24-20.08-26.31-21.27-11.57-1.62-19.41,4.86-22.21,13.19-2.95,10.44-.28,22.36-1.03,33.4-.17,5.2-.84,10.37-2.02,15.44-.22,.5-.2,1.07,.06,1.54-4.04,4.69-8.09,9.37-12.6,14.15-3.31,3.47-6.81,6.76-10.48,9.84,2.01-6.88,1.32-14.78-2.76-22.53-2.53-5.47-8.75-9.43-14.88-11.33-13.84-3.76-17.66,6.07-12.02,16.63,4.23,8.5,13.5,18.87,13.14,24.91,.07,1.65,.01,3.31-.16,4.96-.32,.56-.34,1.25-.05,1.82-9.81,7.7-20.11,14.75-30.83,21.11,3.89-8.29,6.78-17.41,4.17-27.79-2.33-9.4-11.95-19.43-23.3-18.75-10.63,.54-17.77,6.35-23.56,12.68-11.73,11.9-13.69,31.74-18.17,46.11-2.01,6.88-5.38,13.25-8.88,19.38-.32,.84-1.62,1.87-1.44,3.14-27.42,10.07-55.52,18.45-84.19,27.73-12.29,4.24-24.45,8.7-35.59,14.53,4.85-5.62,9.46-11.2,13.94-17.01,5.71,.69,10.89-.07,14.17-2.79,3.62-3.05,2.04-9.22-2.61-13.23,2.38-3.84,5-7.73,7.25-11.8,12.52,7.13,24.59,12.01,34.11,8.07,8.06-4.18,1.89-15.67-6.58-21.27-3.57-2.44-7.34-4.56-11.28-6.34,4.16-3.14,8.58-5.91,13.21-8.3,20.61-10.8,45.17-16.93,62.87-31.05,8.91-6.94,18.89-14.35,21.32-25.72,.79-4.3,1.05-9.54-2.76-13.98-14.51-14-34.22-4.93-45.38,.38-9.6,4.76-17.8,11.91-23.83,20.77-5.94,8.43-9.77,18.26-14.34,27.72-1.94,3.9-4.09,7.7-6.43,11.38,.57-.89,1.01-2.01,1.57-2.9,4.22-9.13,7.7-18.63,11.17-28.13,.48-.09,.59-.38,1.07-.47,.39-.27,.64-.7,.68-1.17-.07-.52-.25-1.01-.54-1.45,.11-.28,.22-.56,.46-.61,.68,.15,1.38-.21,1.66-.85,6.25-15.49,25.81-42.94,10.57-63.02-2.06-1.87-4.73-2.91-7.51-2.93-7.27-.13-11.05,5.03-13.39,9.9-5.29,12.45-5.65,27.05-1.99,42.14,.95,4.24,2.13,8.42,3.55,12.53,.52,.93,.57,1.96,1.33,2.85-2.38,.99-4.63,2.21-7.01,3.19-2.32-7.38-3.97-14.95-4.94-22.62-1.39-10.1-2.91-26.14-14.86-34.16-3.81-2.15-8.64-.97-11.03,2.7-5.03,7.21-2.65,17.64,1.01,27.03,3.24,8.17,7.55,15.86,12.82,22.89,2.19,3.02,4.66,5.83,7.37,8.4l.13,.23c-3.67,2.02-7.33,4.04-10.63,6.24-12.49,8.16-23.09,18.29-33.57,28.13-1.05,.98-1.99,1.69-3.03,2.67-1.42-2.05-2.6-4.16-3.77-6.26-3.82-6.87-7.11-14.03-9.85-21.4-4.74-12.29-11.41-32.76-27.34-43.11-5.11-3.4-10.74-2.04-12.9,1.24-3.52,5.62,.1,13.98,2.93,20.95,5.1,11.96,13.21,23.59,22.26,34.51,5.34,6.21,10.56,12.18,16.49,18.02,1.37,1.03,2.53,2.61,4.01,3.36-6.99,6.56-14.22,13.17-21.45,19.78-6.47-12.99-10.59-24.62-15.75-38.13-4.99-12.24-10.13-25.23-21.1-35.78-8.92-7.84-18.9-6.13-21.48,1.64-4.79,12.87,1.24,29.84,9.35,44.31,5.31,8.83,11.66,16.98,18.93,24.28,4.34,4.44,8.92,8.65,13.72,12.6,1.24,.79,2.38,1.87,3.62,2.66-3.39,3-6.88,6.28-10.27,9.28l-10.16,9c-.24,.05-.48,.09-.35,.32-.24,.05-.11,.28-.11,.28-2.58,2.06-5.26,4.41-7.84,6.47l-.24,.05c-8.65-18.78-19.01-37.75-34.73-54.88-7.24-8.17-15.33-16.43-25.26-22.26-11.04-6.38-27.97-11.87-29.51,.62-.58,12.3,8.73,23.69,20.04,33.4-7.55-3.96-15.65-6.51-23.29-6.82-9.42-.48-17.57,6.47-18.59,15.85-.71,17.77,17.46,35.46,30.35,51.33,7,8.22,13.43,17.32,13.39,24.85-.11,2.36-.5,4.7-1.16,6.97-.32,.84-1.03,1.5-.5,2.43,.29,.62,.85,1.08,1.51,1.26-.6,.57-1.14,1.2-1.62,1.87-4.76,1.97-8.76,4.84-9.39,9.89,.06,.54,0,1.08-.18,1.59-.27,.55-.62,1.05-1.03,1.5-2.22,3.05-4.27,6.23-6.14,9.51,.93-12.63,2.33-25.35-2.96-39.09-8.34-22.99-31.94-46.09-38.89-67.54-3.51-11.5-2.43-20.53-3.36-31.23,1.22,.28,2.29-.19,2.49-1.27,.61-2.71,1.12-5.15,1.86-7.63,2.28-9.27,4.16-16.38,7.05-25.5,1.6-5.24,3.43-10.53,5.27-15.82l.24-.05c3.38-.67,6.8-1.08,10.24-1.24,6.51-.76,22.13-.47,29.58,.92,15.45,1.88,34.81,10.26,45.97,2.1,8.32-6.57,1.32-20.48-9.63-27.67-12.85-9.14-28.89-13.5-42.27-12.16-9.89,.91-17.31,5.74-24.26,10.48-1.24,.8-2.49,1.57-3.77,2.3,1.42-6.5,2.61-12.96,4.2-18.2,4.31-15.63,11.22-29.96,17.39-44.65,1.22,.28,2.29-.19,3.38-.15,2.9-.05,5.81-.11,8.6,.12,8.43,.66,16.8,2.05,24.99,4.16,9.91,2.46,19.99,6.18,29.96,7.33,14.12,1.89,28.07-.34,36.09-8.4,7.41-8.2-2.19-20.57-13.95-26.82-12.02-6.71-25.34-9.53-37.58-9.98-17.94-.62-28.42,6.37-35.05,18.83-1.81,2.95-6.25,6.93-9.85,7.64-1.28,.47-2.6,.82-3.95,1.04,1.11-2.29,1.86-4.77,2.84-7.3,5.53-15.35,6.7-30.88,16.19-44.42,5.05-6.7,15.81-15.56,21.15-24.13,2.62-3.89,5.24-7.77,7.5-11.85,16.59-2.75,37.56,.9,55.99-1.43,6.85-1.09,13.67-3.21,17.34-8.09,7.45-10.03,.45-21.09-15.15-26.58-16.6-6.32-30.25,.25-41,6.78-3.45,2.32-6.55,5.11-9.22,8.3,.88-3.21,1.96-6.37,3.23-9.45,2.65-6.23,5.88-9.98,11.38-14.43,6.13-4.17,11.89-8.85,17.21-14.02,4.07-2.27,8.01-4.78,11.79-7.51,4.94-3.56,9.87-7.13,12.56-12.33,3.83-6.98,5.67-17.97-4.35-25.85-5.52-4.62-13.81-6.1-19.05-4.03-12.56,6.62-14.03,26.36-10.53,40.71,.85,2.95,1.7,5.89,2.55,8.83l.13,.23c-2.34,2.02-4.67,4.03-7.14,5.81-4.38,2.84-8.42,6.15-12.06,9.89-.22-8,2.83-16.37,2.22-25.07-.45-13.66-10.65-29.02-25.44-38.3-18.48-10.62-33.16-2.55-29.19,14.05,1.65,7.71,6.45,15.33,11.12,22.71,5.54,7.98,11.45,16.16,18.78,23.53,3.67,3.69,7.68,7.05,11.82,10.64,1.24,1.07,2.58,2.02,3.99,2.85-2.56,5.43-3.87,11.65-5.69,17.46-2.9,8.64-7.18,16.75-12.68,24.02-4.87,7.96-15.53,16.54-21.96,25.07-1.23,1.65-2.29,3.43-3.17,5.29-.25-.51-.6-.97-1.03-1.35-2.76-11.13-2.73-22.02-4.04-32.92-2.04-19.83-10.16-40.53-34.41-52.87-10.89-5.64-25.05-8.55-32.28-1.94-8.15,7.83-6.83,22.09,.57,33.85,10.4,17.14,28.66,31.18,46.81,42.65,7.33,4.52,13.97,6.85,18.76,11.61l.26,.47c.35,1.5,.81,2.97,1.39,4.39,.35,.56,.95,.93,1.62,.98-4.74,11.05-6.76,23.63-10.67,34.26-5.88,15.68-13.25,30.62-19.13,46.29-.68-1.68-1.52-4.63-2.2-6.31-2.72-8.41-4.93-16.98-6.64-25.66-4.81-22.39-11.54-50.11-39.37-64.6-36.42-16.95-65.71,3.6-42.05,36.8,12.97,17.93,33.48,30.75,53.91,41.51,10.3,6.01,21.52,10.8,28.58,17.71,1.17,1.5,2.18,3.13,2.99,4.86,.52,.93,.43,1.73,1.31,2.34l1.11,.56c-.42,1.64-1.07,3.32-1.49,4.96-3.41,11.04-5.21,23.07-7.88,34.48-.65,2.82-1.5,5.59-2.56,8.28-.24,.05-.11,.28-.22,.56-.66,1.69-1.07,3.32-1.73,5.01-11.69-13.26-18.07-29.89-29.46-44.51-11.19-12.84-28.57-26.27-45.54-26.56-24.93,.24-7.97,32.43,5.77,45.54,11.23,11.01,25.61,19.07,40.36,24.47,1.7,5.89,3.88,11.68,6.19,17.71-1.66-2.01-3.56-3.97-5.21-5.98-4.69-5.04-15.92-18.91-22.82-15.99-6.49,4.13,4.09,16.83,10.57,21.26,6.14,4.59,13.05,8.06,20.4,10.24l.24-.05c1.74,5.25,2.98,10.65,3.7,16.13,.54,4.33,.85,8.68,.91,13.05-.5-.42-1.13-1.08-1.64-1.49-2.4-2.38-4.56-4.81-6.72-7.24-4.95-5.51-9.42-11.1-15.66-15.59-11.63-8.86-21.83-3.74-13.95,7.93,6.06,8.92,17.5,13.15,27.3,15.89,1.96,.65,6.87,2.28,9.14,4.42l.13,.23c.5,.42,.76,.89,1.27,1.31,.54,10.01,2.06,20.34,8.42,30.76,12.03,21.49,31.56,42.54,35.82,63.48,2.7,15.29-1.03,30.54-.23,46.72,.29,18.61,4.62,38.25,5.53,57,.37,3.04,.74,6.08,1.22,8.84-6.48-7.28-13.31-14.24-20.48-20.86-14.83-13.15-29.91-26.27-43.91-39.85,.07-1.3,.35-2.58,.81-3.79,1.3-4.71,3.28-9.2,5.86-13.34,6.47-10.35,21.52-21.09,24.3-35.64,4.42-18.76-19.27-32.51-36.78-25.69-15.31,7.42-15.21,27.11-13.69,43.15,.8,6.58,2.12,13.08,3.96,19.45l-1.9-1.96c-9.88-10.5-19.3-21.61-29.07-32.4-.04-1.03-1.07-2.38-1.48-3.6-1.38-2.43-2.54-4.98-3.47-7.62-3.38-8.41-6.25-22.11-6.11-30.43-.29-18.61,11.11-32.53,6.39-52.86-2.33-12.25-16.72-29.38-30.22-22.06-4.26,2.39-6.25,6.93-8.02,10.91-2.86,6.79-3.87,14.51-3.67,22.5,.44,11.61,2.88,23.06,7.22,33.85,2.66,6.85,5.77,13.51,9.31,19.95-17.56-14.69-36.74-27.51-54.15-41.46,.24-.59,.16-1.25-.2-1.78-.34-1.49-.57-3.01-.67-4.54-.3-4.35,.31-12.77,2.43-17.08,7.83-15.54,16.74-31.04,15.82-50.31-.57-22.45-6.99-60.08-38.3-73.63-21.43-8.75-31.16,7.69-31.25,22.75-1.57,26.24,12.93,54.5,24.83,81.46,4.82,10.98,8.45,19.86,12.27,30-4.5-4.19-8.77-8.63-12.78-13.3-11.08-13.12-18.88-26.1-28.22-40.86-8.07-13.45-17.09-26.72-25.16-40.17-1.57-2.8-3.03-5.89-4.6-8.69,.58-.58,.59-1.52,.01-2.1-.07-.07-.14-.13-.23-.19-11.41-12.28-18.43-23.86-28.66-36.89-15.59-19.75-33.74-39.77-56.71-53.66-10.19-6.29-21.26-7.48-25.01,1.04-2.25,6.93,1.74,15.48,5.57,23.28,4.05,7.24,8.48,14.66,14.33,21.3,9.53,10.83,21.18,20.21,33.29,28.97,13.98,9.87,28.8,18.49,44.29,25.77l15.19,7.12c.38,.19,.8,.28,1.22,.28,5.21,8.83,11.27,17.75,16.72,26.53-1.57-.29-3.12-.68-4.65-1.16-7.51-1.87-14.8-4.52-21.76-7.9-25.07-11.92-48.46-29.88-75.91-37.95-5.26-1.29-10.74-2.03-14.78-.2-4.71,2.41-6.87,7.96-5.03,12.92,3.59,10.7,14.98,19.61,25.67,26.32,24.85,15.33,53.61,25.75,79.61,25.04,8.71-.16,17.27-1.07,24.54-3.79l.24-.05c7.91,12.7,16.06,25.36,26.12,37.13,8.66,10.22,19.08,19.32,29.84,27.58,1.65,1.38,3.36,2.68,5.13,3.92-12.46-2.73-24.04-7.71-37.12-13.44-13.44-5.91-26.86-11.31-40.74-16.09-16.56-5.3-34.76-12.09-50.15-9.58-9.37,1.84-11.29,10.78-4.64,19.33,6.04,8.41,16.1,14.46,25.17,20.2,15.34,9.04,31.99,15.65,49.36,19.58,17.48,4.08,34.88,6.1,51.42,5.18,11.35-.68,23.05-1.69,33.07-5.21,.24-.05,.11-.28,.11-.28,13.5,10.31,26.77,20.66,38.13,31.91,6.96,7.19,13.68,14.42,20.15,21.7-17.13-.99-34.12-3.73-50.7-8.17-23.46-5.23-52.57-15.32-68.36-2.1-9.74,7.36-5.87,21.9,7.01,31.55,12.37,9.23,27.41,12.76,41.14,13.94,21.28,2.29,38.92-4.29,54.32-12.51,6.64-3.38,15.04-7.89,20.79-9.54,1.62-.58,3.32-.91,5.04-.99l1.44-.28c4.32,4.85,9.01,9.9,13.57,14.7,1.77,1.73,3.29,3.5,4.93,4.99l.26,.47c.26,.47,.63,.65,1.37,1.03l7.2,7.14c-.06,.54,.14,1.08,.54,1.45,.54,.44,1.18,.76,1.85,.93,11.61,11.2,23.8,22.02,36.23,32.8,10.64,9.19,20.64,19.09,29.93,29.63,.5,.42,.89,1.12,1.53,1.77,.1,.61,.09,1.23-.05,1.82-1.52,15.86,1.11,32.45,3.87,49.29-10.11,7.18-27.88,4.97-41.63,8.97-9.56,2.92-17.25,10.13-16.71,20.15,.34,11.08,9.09,23.37,21.48,30.26,17,9.88,33.35,1.47,36.33-11.3,2.76-9.36,3.44-19.09,4.23-29.1,2.52,11.17,4.94,22.63,6,33.57,1.69,11.6,0,23.34,.28,35.73,.32,2.01-.2,3.93,.61,5.84,1.29,1.82,4.54,1.44,4.21-.57-.78-7.11,.14-16.88,.28-25.21-.16-8.21-.75-16.4-1.75-24.55-1.63-12.9-5.33-26.18-7.94-39.41l.26-2.39c.07-.26,.02-.54-.15-.75,2.16-.43,2.14-.94,3.58-1.22,8.01-2.35,16.35-2.7,25.21-2.11-.32,.84-.05,1.82-.5,2.43-.29,1.87-.72,3-.92,4.07-2.01,6.88-5.27,12.97-8.4,19.29-5.81,11.52-12.37,25.52-2.65,40.97,16.24,26.62,47.42,22.3,40.75-3.87-3.15-14.68-15.43-30.41-20.09-43.5-1.57-5.66-1.96-9.21-.6-14.4,.23-1.35,.66-2.66,1.29-3.88,7.79,1.06,15.47,2.4,23.5,3.41,3.94,.51,7.9,.77,11.87,.78h0Zm-140.69-319.79c-.96-2.66-1.68-5.37-2.5-7.8,1.96,.65,4.17,1.25,6,1.67,4.54,1.44,7.59,2.13,11.21,4.79l.13,.23,.37,.19c1,.84,1.66,2.01,2.77,2.57-.11,.28,.02,.52-.22,.56-3.11,9.28-5.75,18.72-7.9,28.27-.11,.28,.02,.51-.22,.56-1.39-10.1-5.71-20.66-9.65-31.03h0Zm88.75,244.18c2.64-.52,12.7-.17,15.15,.39,2.35,.35,4.68,.84,6.96,1.48-3.53,5.86-5.58,12.5-5.97,19.33-2.54-2.53-5.45-4.66-8.62-6.34-5.83-3.52-12.25-5.94-18.94-7.16l-.13-.23c1.97-2.2,3.93-4.4,6.03-6.37l.24-.05c1.7-.59,3.48-.94,5.28-1.04h0Zm71.59-85.93c-1.72-10.37-4.71-20.5-8.88-30.15-2.72-6.38-5.77-12.62-9.13-18.69-.6-1.13-1.29-2.21-2.07-3.22l3.87-3.1c9.14,4.42,17.24,9.83,26.36,16.59,5,3.68,10.38,8.07,16.12,12.12-8.58,8.95-17.54,17.72-26.25,26.44h0Zm88.73-148.17c6.8-4.78,14-8.98,21.51-12.53,1.55-.56,2.73-1.32,4.28-1.88-2.73,7.02-5.34,14.28-8.44,21.11-3.1,6.83-6.58,13.48-10.06,20.13-.39,.27-.64,.7-.68,1.17-.22,.56-.57,.89-.79,1.45-7.77-2.32-15.8-3.7-23.9-4.11-3.88-.27-7.53-.59-11.28-.63,9.81-8.67,19.37-17.3,29.35-24.71h0Zm-37.04,31.93c8.86,3.44,19.97,11.37,31.51,18.17-2.38,3.84-4.53,7.63-7.04,11.24-4.26-2.33-8.86-3.97-13.64-4.83-11.58-2.25-23.44-2.72-35.16-1.37,8.04-7.55,16.43-15.43,24.33-23.2Zm-39.62,36.84c.86-.72,1.68-1.48,2.45-2.3,1.59,.46,3.4,.37,5,.83,6.11,1.39,12.48,3.25,18.62,5.15,6.74,2.04,16.08,5.39,24.75,7.06-4.48,5.81-9.33,11.43-14.18,17.05-6.11-4.24-13-7.03-19.88-9.31-6.26-2.17-12.74-3.68-19.31-4.49-4.26-.46-8.38-.68-12.51-.91,5.26-4.41,10.29-8.77,15.07-13.09h0Zm-83.99,55.7c4.09-6.51,8.15-13.53,10.38-20.97,2.22,3.97,4.45,7.94,7.04,12.1-7.71,5.44-15.1,11.31-22.15,17.59,1.57-2.91,3.14-5.81,4.72-8.71h0Zm-7.05,16.95c8.47-8.03,17.51-15.44,27.04-22.18,7.83,11.61,16.75,22.45,26.65,32.35,3.4,3.22,7.18,6.63,10.69,9.57,.42,.39,.88,.73,1.37,1.03-5.68,6.05-11.23,12.32-16.78,18.6-.5-.16-1.04-.06-1.44,.28-.65,.3-.94,1.06-.64,1.71,.03,.07,.07,.14,.12,.21-3.13,3.47-6.01,6.89-9.26,10.12-2.35-9.91-4.22-19.91-8.99-29.86-5.97-12.57-15.85-23.07-28.76-21.83h0Zm-20.57,98.96c-1.25-21.28-6.1-41.85-5.61-61.91,.07-1.31,0-2.85,.07-4.16,2.55,.27,2.88-3.42,4.15-4.97,1.46-2.62,3.06-5.01,4.65-7.4,2.2,6.31,6.71,12.94,11.66,18.45,6.85,7.47,16.56,11,25.22,15.52,1.66,.95,3.24,2.02,4.73,3.22,.13,.23,.63,.65,.76,.89,.37,.19,1.03,1.35,1.4,1.54,.49,.64,.89,1.35,1.18,2.1-8.83,9-18.39,17.62-27.46,26.67,.8-6.63,.81-13.34,.01-19.97-.67-4.54-1.74-9.77-5.56-14.21-2.79-3.08-8.03-3.87-10.24-1.62-2.34,2.02-2.32,5.38-2.43,8.52,.37,5.89,2.2,12.02,4.37,17.81,1.84,4.87,3.3,9.87,4.38,14.96,.29,1.24,.47,2.51,.52,3.79-3.58,4.08-7.03,8.39-10.35,12.93-.42-4.07-1.07-8.09-1.48-12.16h0Zm9.97,62.09c-1.63,.36-3.23,.85-4.78,1.46l-.24,.05c-1.78-10.8-3.26-22.96-3.86-31.65-.18-1.73-.17-3.47,.02-5.19,.27,.45,.73,.74,1.24,.79,1.96,.65,3.36-.66,2.32-2.53-.41-1.22-.59-2.48-1-3.69,.96-.19,1.66-.85,1.38-1.83q.24-.05,.61,.14c2.4,.13,4.77,.53,7.07,1.2,4.54,1.44,12.7,5.54,19.07,7.4,4.3,1.49,9.16,2.09,12.64,1.14,.32,2.96,.89,5.88,1.7,8.74,2.4,8.78,6.4,17.05,11.79,24.39,.26,.47,.76,.89,1.03,1.35-15.6-2.63-34.85-5.58-48.98-1.77h0Z"/>
  <path class="cls-3" d="M747.83,1843.93c-326.51,22.23-675.52-241.69-675.52-562.87s517.52-184.32,685.4-439.25c402.24-610.39,1214.28,371.83,928.81,481.46-572.01,219.5-155.47,467.29-938.69,520.66h0Z"/>
  <path class="cls-14" d="M1547.72,1189.26c.15,.75,.54,1.45,.7,2.2,1.26,7.01,2.06,11.78,1.23,17.91-2,13.1-11.15,25.79-5.86,42.39,5.7,23.51,34.5,37.81,42.25,14.5,4.44-15.4-3.12-34.13-11.58-51.14-4.71-9.12-10.14-17.85-16.22-26.11,6.66-.44,13.22-1.9,19.43-4.34,1.31-.52,2.38-.99,3.69-1.51,.37,.19,.98,.32,1.35,.51,11.42-4.84,20.79-9.54,32.4-12.6,19.98-5.75,45.28-11.51,47.17-32.88,.2-6.78-6.01-13.6-12.52-18.54-8.78-5.89-19.51-8.15-29.92-6.3-17.94,2.24-30.33,12.97-37.04,26.22-4.13,8.33-6.04,17.78-7.33,27.38-.29,4.72-1.4,9.87-.23,14.83-7.62,3.06-16.05,4.2-25,4.4-.44-.12-.9-.12-1.33,0-3.2,.08-6.4-.07-9.58-.45-.73-14.64,5.24-28.26,10.46-42.25,1.71-5.52,4.02-10.91,4.62-16.99,4.59,1.4,9.35,2.2,14.14,2.4,8.86,.59,16.4-4.53,13.02-12.94-6.04-11.26-26.97-16.73-38.32-18.91-9.67-1.47-19.48-1.72-29.21-.73-1.34,.04-2.67,.22-3.97,.52,5.7-5.53,11.16-11.01,16.5-16.73,4.76-4.83,9.26-10.12,13.89-15.18,15.15,3.24,28.94,11.68,42.96,20.07,17.03,10.91,34.84,22.7,52.29,17.19,14.67-5.22,13.9-23.74-2.79-34.98-16.93-11.19-37.23-16.01-55.19-17.14-7.3-.47-14.62-.33-21.89,.42-.72,.14-1.57,.05-2.53,.24l12.52-13.36c7.08-7.36,14.29-14.48,21.36-21.84,.85,.09,1.94,.14,3.03,.18,4.63,.65,6.57,.78,11.33,1.66,11.85,2.59,23.87,6.45,35.7,8.53,11.34,1.88,22.87,2.31,34.31,1.28,8.32-.86,17.11-1.81,23.99-5.24,12.45-6.34,13.66-20.84-4.08-31.09-15.5-8.01-33.06-11.15-50.37-9.01-4.56,.9-10,1.19-14.04,3.02l-3.4-3.22,.48-.09c9.83-5.31,20.68-9.26,31.77-13.26,14.56-4.94,30.11-9.56,45.87-14.74,6.57,3.63,12.26,6.66,19.03,12.08,18.15,14.32,31.1,37.44,48.75,54.2,12.11,11.62,43.83,32.08,59.09,29.34,31.48-5.68-28.38-50.68-42.63-61.36-16.36-12.08-33.97-22.1-51.77-31.04-5.9-3.02-11.99-5.63-18.24-7.82,20.89-6.97,41.53-14.4,60.66-23.09,3.45-1.46,6.77-3.15,9.85-4.79l.37,.19c2.33,.84,5.04,1.86,7.51,2.93,3.93,1.3,11.98,5.68,13.59,6.66,31.4,18.45,51.02,50.64,85.15,67.77,14.36,7.55,32.47,12.28,43.94,5.61,18.94-16.17-23-46.3-42.28-58.84-18.26-11.19-38.06-18.44-57.76-23.64-9.87-2.75-19.95-4.67-30.14-5.73-3.18-.4-6.38-.55-9.58-.45,23.67-12.4,45.79-27.55,65.91-45.13,.98,.32,2.07,.37,3.05,.7,5.64,1.59,11.18,3.53,16.59,5.81,13.92,5.82,24.48,12.29,37.09,21.48,15.6,11.19,31.28,24.44,49.88,29.08,6.46,1.06,13.88,1.93,18.23-1.25,3.74-3.33,4.57-9.46,.71-14.92-5.32-8.55-14.79-14.99-23.75-21-8.17-5.47-16.71-10.38-25.55-14.68-10.73-5.41-21.98-9.71-33.58-12.84-9.27-2.62-18.7-4.66-28.22-6.11,3.47-3.8,6.95-7.59,10.29-11.62l.24-.05c14.43-8.03,31.37-13.96,41.01-26.75,3.89-5.43,7.28-11.29,6.85-18.72,.16-10.66-15.24-20.08-26.31-21.27-11.57-1.62-19.41,4.86-22.21,13.19-2.95,10.44-.28,22.36-1.03,33.4-.17,5.2-.84,10.37-2.02,15.44-.22,.5-.2,1.07,.06,1.54-4.04,4.69-8.09,9.37-12.6,14.15-3.31,3.47-6.81,6.76-10.48,9.84,2.01-6.88,1.32-14.78-2.76-22.53-2.53-5.47-8.75-9.43-14.88-11.33-13.84-3.76-17.66,6.07-12.02,16.63,4.23,8.5,13.5,18.87,13.14,24.91,.07,1.65,.01,3.31-.16,4.96-.32,.56-.34,1.25-.05,1.82-9.81,7.7-20.11,14.75-30.83,21.11,3.89-8.29,6.78-17.41,4.17-27.79-2.33-9.4-11.95-19.43-23.3-18.75-10.63,.54-17.77,6.35-23.56,12.68-11.73,11.9-13.69,31.74-18.17,46.11-2.01,6.88-5.38,13.25-8.88,19.38-.32,.84-1.62,1.87-1.44,3.14-27.42,10.07-55.52,18.45-84.19,27.73-12.29,4.24-24.45,8.7-35.59,14.53,4.85-5.62,9.46-11.2,13.94-17.01,5.71,.69,10.89-.07,14.17-2.79,3.62-3.05,2.04-9.22-2.61-13.23,2.38-3.84,5-7.73,7.25-11.8,12.52,7.13,24.59,12.01,34.11,8.07,8.06-4.18,1.89-15.67-6.58-21.27-3.57-2.44-7.34-4.56-11.28-6.34,4.16-3.14,8.58-5.91,13.21-8.3,20.61-10.8,45.17-16.93,62.87-31.05,8.91-6.94,18.89-14.35,21.32-25.72,.79-4.3,1.05-9.54-2.76-13.98-14.51-14-34.22-4.93-45.38,.38-9.6,4.76-17.8,11.91-23.83,20.77-5.94,8.43-9.77,18.26-14.34,27.72-1.94,3.9-4.09,7.7-6.43,11.38,.57-.89,1.01-2.01,1.57-2.9,4.22-9.13,7.7-18.63,11.17-28.13,.48-.09,.59-.38,1.07-.47,.39-.27,.64-.7,.68-1.17-.07-.52-.25-1.01-.54-1.45,.11-.28,.22-.56,.46-.61,.68,.15,1.38-.21,1.66-.85,6.25-15.49,25.81-42.94,10.57-63.02-2.06-1.87-4.73-2.91-7.51-2.93-7.27-.13-11.05,5.03-13.39,9.9-5.29,12.45-5.65,27.05-1.99,42.14,.95,4.24,2.13,8.42,3.55,12.53,.52,.93,.57,1.96,1.33,2.85-2.38,.99-4.63,2.21-7.01,3.19-2.32-7.38-3.97-14.95-4.94-22.62-1.39-10.1-2.91-26.14-14.86-34.16-3.81-2.15-8.64-.97-11.03,2.7-5.03,7.21-2.65,17.64,1.01,27.03,3.24,8.17,7.55,15.86,12.82,22.89,2.19,3.02,4.66,5.83,7.37,8.4l.13,.23c-3.67,2.02-7.33,4.04-10.63,6.24-12.49,8.16-23.09,18.29-33.57,28.13-1.05,.98-1.99,1.69-3.03,2.67-1.42-2.05-2.6-4.16-3.77-6.26-3.82-6.87-7.11-14.03-9.85-21.4-4.74-12.29-11.41-32.76-27.34-43.11-5.11-3.4-10.74-2.04-12.9,1.24-3.52,5.62,.1,13.98,2.93,20.95,5.1,11.96,13.21,23.59,22.26,34.51,5.34,6.21,10.56,12.18,16.49,18.02,1.37,1.03,2.53,2.61,4.01,3.36-6.99,6.56-14.22,13.17-21.45,19.78-6.47-12.99-10.59-24.62-15.75-38.13-4.99-12.24-10.13-25.23-21.1-35.78-8.92-7.84-18.9-6.13-21.48,1.64-4.79,12.87,1.24,29.84,9.35,44.31,5.31,8.83,11.66,16.98,18.93,24.28,4.34,4.44,8.92,8.65,13.72,12.6,1.24,.79,2.38,1.87,3.62,2.66-3.39,3-6.88,6.28-10.27,9.28l-10.16,9c-.24,.05-.48,.09-.35,.32-.24,.05-.11,.28-.11,.28-2.58,2.06-5.26,4.41-7.84,6.47l-.24,.05c-8.65-18.78-19.01-37.75-34.73-54.88-7.24-8.17-15.33-16.43-25.26-22.26-11.04-6.38-27.97-11.87-29.51,.62-.58,12.3,8.73,23.69,20.04,33.4-7.55-3.96-15.65-6.51-23.29-6.82-9.42-.48-17.57,6.47-18.59,15.85-.71,17.77,17.46,35.46,30.35,51.33,7,8.22,13.43,17.32,13.39,24.85-.11,2.36-.5,4.7-1.16,6.97-.32,.84-1.03,1.5-.5,2.43,.29,.62,.85,1.08,1.51,1.26-.6,.57-1.14,1.2-1.62,1.87-4.76,1.97-8.76,4.84-9.39,9.89,.06,.54,0,1.08-.18,1.59-.27,.55-.62,1.05-1.03,1.5-2.22,3.05-4.27,6.23-6.14,9.51,.93-12.63,2.33-25.35-2.96-39.09-8.34-22.99-31.94-46.09-38.89-67.54-3.51-11.5-2.43-20.53-3.36-31.23,1.22,.28,2.29-.19,2.49-1.27,.61-2.71,1.12-5.15,1.86-7.63,2.28-9.27,4.16-16.38,7.05-25.5,1.6-5.24,3.43-10.53,5.27-15.82l.24-.05c3.38-.67,6.8-1.08,10.24-1.24,6.51-.76,22.13-.47,29.58,.92,15.45,1.88,34.81,10.26,45.97,2.1,8.32-6.57,1.32-20.48-9.63-27.67-12.85-9.14-28.89-13.5-42.27-12.16-9.89,.91-17.31,5.74-24.26,10.48-1.24,.8-2.49,1.57-3.77,2.3,1.42-6.5,2.61-12.96,4.2-18.2,4.31-15.63,11.22-29.96,17.39-44.65,1.22,.28,2.29-.19,3.38-.15,2.9-.05,5.81-.11,8.6,.12,8.43,.66,16.8,2.05,24.99,4.16,9.91,2.46,19.99,6.18,29.96,7.33,14.12,1.89,28.07-.34,36.09-8.4,7.41-8.2-2.19-20.57-13.95-26.82-12.02-6.71-25.34-9.53-37.58-9.98-17.94-.62-28.42,6.37-35.05,18.83-1.81,2.95-6.25,6.93-9.85,7.64-1.28,.47-2.6,.82-3.95,1.04,1.11-2.29,1.86-4.77,2.84-7.3,5.53-15.35,6.7-30.88,16.19-44.42,5.05-6.7,15.81-15.56,21.15-24.13,2.62-3.89,5.24-7.77,7.5-11.85,16.59-2.75,37.56,.9,55.99-1.43,6.85-1.09,13.67-3.21,17.34-8.09,7.45-10.03,.45-21.09-15.15-26.58-16.6-6.32-30.25,.25-41,6.78-3.45,2.32-6.55,5.11-9.22,8.3,.88-3.21,1.96-6.37,3.23-9.45,2.65-6.23,5.88-9.98,11.38-14.43,6.13-4.17,11.89-8.85,17.21-14.02,4.07-2.27,8.01-4.78,11.79-7.51,4.94-3.56,9.87-7.13,12.56-12.33,3.83-6.98,5.67-17.97-4.35-25.85-5.52-4.62-13.81-6.1-19.05-4.03-12.56,6.62-14.03,26.36-10.53,40.71,.85,2.95,1.7,5.89,2.55,8.83l.13,.23c-2.34,2.02-4.67,4.03-7.14,5.81-4.38,2.84-8.42,6.15-12.06,9.89-.22-8,2.83-16.37,2.22-25.07-.45-13.66-10.65-29.02-25.44-38.3-18.48-10.62-33.16-2.55-29.19,14.05,1.65,7.71,6.45,15.33,11.12,22.71,5.54,7.98,11.45,16.16,18.78,23.53,3.67,3.69,7.68,7.05,11.82,10.64,1.24,1.07,2.58,2.02,3.99,2.85-2.56,5.43-3.87,11.65-5.69,17.46-2.9,8.64-7.18,16.75-12.68,24.02-4.87,7.96-15.53,16.54-21.96,25.07-1.23,1.65-2.29,3.43-3.17,5.29-.25-.51-.6-.97-1.03-1.35-2.76-11.13-2.73-22.02-4.04-32.92-2.04-19.83-10.16-40.53-34.41-52.87-10.89-5.64-25.05-8.55-32.28-1.94-8.15,7.83-6.83,22.09,.57,33.85,10.4,17.14,28.66,31.18,46.81,42.65,7.33,4.52,13.97,6.85,18.76,11.61l.26,.47c.35,1.5,.81,2.97,1.39,4.39,.35,.56,.95,.93,1.62,.98-4.74,11.05-6.76,23.63-10.67,34.26-5.88,15.68-13.25,30.62-19.13,46.29-.68-1.68-1.52-4.63-2.2-6.31-2.72-8.41-4.93-16.98-6.64-25.66-4.81-22.39-11.54-50.11-39.37-64.6-36.42-16.95-65.71,3.6-42.05,36.8,12.97,17.93,33.48,30.75,53.91,41.51,10.3,6.01,21.52,10.8,28.58,17.71,1.17,1.5,2.18,3.13,2.99,4.86,.52,.93,.43,1.73,1.31,2.34l1.11,.56c-.42,1.64-1.07,3.32-1.49,4.96-3.41,11.04-5.21,23.07-7.88,34.48-.65,2.82-1.5,5.59-2.56,8.28-.24,.05-.11,.28-.22,.56-.66,1.69-1.07,3.32-1.73,5.01-11.69-13.26-18.07-29.89-29.46-44.51-11.19-12.84-28.57-26.27-45.54-26.56-24.93,.24-7.97,32.43,5.77,45.54,11.23,11.01,25.61,19.07,40.36,24.47,1.7,5.89,3.88,11.68,6.19,17.71-1.66-2.01-3.56-3.97-5.21-5.98-4.69-5.04-15.92-18.91-22.82-15.99-6.49,4.13,4.09,16.83,10.57,21.26,6.14,4.59,13.05,8.06,20.4,10.24l.24-.05c1.74,5.25,2.98,10.65,3.7,16.13,.54,4.33,.85,8.68,.91,13.05-.5-.42-1.13-1.08-1.64-1.49-2.4-2.38-4.56-4.81-6.72-7.24-4.95-5.51-9.42-11.1-15.66-15.59-11.63-8.86-21.83-3.74-13.95,7.93,6.06,8.92,17.5,13.15,27.3,15.89,1.96,.65,6.87,2.28,9.14,4.42l.13,.23c.5,.42,.76,.89,1.27,1.31,.54,10.01,2.06,20.34,8.42,30.76,12.03,21.49,31.56,42.54,35.82,63.48,2.7,15.29-1.03,30.54-.23,46.72,.29,18.61,4.62,38.25,5.53,57,.37,3.04,.74,6.08,1.22,8.84-6.48-7.28-13.31-14.24-20.48-20.86-14.83-13.15-29.91-26.27-43.91-39.85,.07-1.3,.35-2.58,.81-3.79,1.3-4.71,3.28-9.2,5.86-13.34,6.47-10.35,21.52-21.09,24.3-35.64,4.42-18.76-19.27-32.51-36.78-25.69-15.31,7.42-15.21,27.11-13.69,43.15,.8,6.58,2.12,13.08,3.96,19.45l-1.9-1.96c-9.88-10.5-19.3-21.61-29.07-32.4-.04-1.03-1.07-2.38-1.48-3.6-1.38-2.43-2.54-4.98-3.47-7.62-3.38-8.41-6.25-22.11-6.11-30.43-.29-18.61,11.11-32.53,6.39-52.86-2.33-12.25-16.72-29.38-30.22-22.06-4.26,2.39-6.25,6.93-8.02,10.91-2.86,6.79-3.87,14.51-3.67,22.5,.44,11.61,2.88,23.06,7.22,33.85,2.66,6.85,5.77,13.51,9.31,19.95-17.56-14.69-36.74-27.51-54.15-41.46,.24-.59,.16-1.25-.2-1.78-.34-1.49-.57-3.01-.67-4.54-.3-4.35,.31-12.77,2.43-17.08,7.83-15.54,16.74-31.04,15.82-50.31-.57-22.45-6.99-60.08-38.3-73.63-21.43-8.75-31.16,7.69-31.25,22.75-1.57,26.24,12.93,54.5,24.83,81.46,4.82,10.98,8.45,19.86,12.27,30-4.5-4.19-8.77-8.63-12.78-13.3-11.08-13.12-18.88-26.1-28.22-40.86-8.07-13.45-17.09-26.72-25.16-40.17-1.57-2.8-3.03-5.89-4.6-8.69,.58-.58,.59-1.52,.01-2.1-.07-.07-.14-.13-.23-.19-11.41-12.28-18.43-23.86-28.66-36.89-15.59-19.75-33.74-39.77-56.71-53.66-10.19-6.29-21.26-7.48-25.01,1.04-2.25,6.93,1.74,15.48,5.57,23.28,4.05,7.24,8.48,14.66,14.33,21.3,9.53,10.83,21.18,20.21,33.29,28.97,13.98,9.87,28.8,18.49,44.29,25.77l15.19,7.12c.38,.19,.8,.28,1.22,.28,5.21,8.83,11.27,17.75,16.72,26.53-1.57-.29-3.12-.68-4.65-1.16-7.51-1.87-14.8-4.52-21.76-7.9-25.07-11.92-48.46-29.88-75.91-37.95-5.26-1.29-10.74-2.03-14.78-.2-4.71,2.41-6.87,7.96-5.03,12.92,3.59,10.7,14.98,19.61,25.67,26.32,24.85,15.33,53.61,25.75,79.61,25.04,8.71-.16,17.27-1.07,24.54-3.79l.24-.05c7.91,12.7,16.06,25.36,26.12,37.13,8.66,10.22,19.08,19.32,29.84,27.58,1.65,1.38,3.36,2.68,5.13,3.92-12.46-2.73-24.04-7.71-37.12-13.44-13.44-5.91-26.86-11.31-40.74-16.09-16.56-5.3-34.76-12.09-50.15-9.58-9.37,1.84-11.29,10.78-4.64,19.33,6.04,8.41,16.1,14.46,25.17,20.2,15.34,9.04,31.99,15.65,49.36,19.58,17.48,4.08,34.88,6.1,51.42,5.18,11.35-.68,23.05-1.69,33.07-5.21,.24-.05,.11-.28,.11-.28,13.5,10.31,26.77,20.66,38.13,31.91,6.96,7.19,13.68,14.42,20.15,21.7-17.13-.99-34.12-3.73-50.7-8.17-23.46-5.23-52.57-15.32-68.36-2.1-9.74,7.36-5.87,21.9,7.01,31.55,12.37,9.23,27.41,12.76,41.14,13.94,21.28,2.29,38.92-4.29,54.32-12.51,6.64-3.38,15.04-7.89,20.79-9.54,1.62-.58,3.32-.91,5.04-.99l1.44-.28c4.32,4.85,9.01,9.9,13.57,14.7,1.77,1.73,3.29,3.5,4.93,4.99l.26,.47c.26,.47,.63,.65,1.37,1.03l7.2,7.14c-.06,.54,.14,1.08,.54,1.45,.54,.44,1.18,.76,1.85,.93,11.61,11.2,23.8,22.02,36.23,32.8,10.64,9.19,20.64,19.09,29.93,29.63,.5,.42,.89,1.12,1.53,1.77,.1,.61,.09,1.23-.05,1.82-1.52,15.86,1.11,32.45,3.87,49.29-10.11,7.18-27.88,4.97-41.63,8.97-9.56,2.92-17.25,10.13-16.71,20.15,.34,11.08,9.09,23.37,21.48,30.26,17,9.88,33.35,1.47,36.33-11.3,2.76-9.36,3.44-19.09,4.23-29.1,2.52,11.17,4.94,22.63,6,33.57,1.69,11.6,0,23.34,.28,35.73,.32,2.01-.2,3.93,.61,5.84,1.29,1.82,4.54,1.44,4.21-.57-.78-7.11,.14-16.88,.28-25.21-.16-8.21-.75-16.4-1.75-24.55-1.63-12.9-5.33-26.18-7.94-39.41l.26-2.39c.07-.26,.02-.54-.15-.75,2.16-.43,2.14-.94,3.58-1.22,8.01-2.35,16.35-2.7,25.21-2.11-.32,.84-.05,1.82-.5,2.43-.29,1.87-.72,3-.92,4.07-2.01,6.88-5.27,12.97-8.4,19.29-5.81,11.52-12.37,25.52-2.65,40.97,16.24,26.62,47.42,22.3,40.75-3.87-3.15-14.68-15.43-30.41-20.09-43.5-1.57-5.66-1.96-9.21-.6-14.4,.23-1.35,.66-2.66,1.29-3.88,7.79,1.06,15.47,2.4,23.5,3.41,3.94,.51,7.9,.77,11.87,.78h0Zm-140.69-319.79c-.96-2.66-1.68-5.37-2.5-7.8,1.96,.65,4.17,1.25,6,1.67,4.54,1.44,7.59,2.13,11.21,4.79l.13,.23,.37,.19c1,.84,1.66,2.01,2.77,2.57-.11,.28,.02,.52-.22,.56-3.11,9.28-5.75,18.72-7.9,28.27-.11,.28,.02,.51-.22,.56-1.39-10.1-5.71-20.66-9.65-31.03h0Zm88.75,244.18c2.64-.52,12.7-.17,15.15,.39,2.35,.35,4.68,.84,6.96,1.48-3.53,5.86-5.58,12.5-5.97,19.33-2.54-2.53-5.45-4.66-8.62-6.34-5.83-3.52-12.25-5.94-18.94-7.16l-.13-.23c1.97-2.2,3.93-4.4,6.03-6.37l.24-.05c1.7-.59,3.48-.94,5.28-1.04h0Zm71.59-85.93c-1.72-10.37-4.71-20.5-8.88-30.15-2.72-6.38-5.77-12.62-9.13-18.69-.6-1.13-1.29-2.21-2.07-3.22l3.87-3.1c9.14,4.42,17.24,9.83,26.36,16.59,5,3.68,10.38,8.07,16.12,12.12-8.58,8.95-17.54,17.72-26.25,26.44h0Zm88.73-148.17c6.8-4.78,14-8.98,21.51-12.53,1.55-.56,2.73-1.32,4.28-1.88-2.73,7.02-5.34,14.28-8.44,21.11-3.1,6.83-6.58,13.48-10.06,20.13-.39,.27-.64,.7-.68,1.17-.22,.56-.57,.89-.79,1.45-7.77-2.32-15.8-3.7-23.9-4.11-3.88-.27-7.53-.59-11.28-.63,9.81-8.67,19.37-17.3,29.35-24.71h0Zm-37.04,31.93c8.86,3.44,19.97,11.37,31.51,18.17-2.38,3.84-4.53,7.63-7.04,11.24-4.26-2.33-8.86-3.97-13.64-4.83-11.58-2.25-23.44-2.72-35.16-1.37,8.04-7.55,16.43-15.43,24.33-23.2Zm-39.62,36.84c.86-.72,1.68-1.48,2.45-2.3,1.59,.46,3.4,.37,5,.83,6.11,1.39,12.48,3.25,18.62,5.15,6.74,2.04,16.08,5.39,24.75,7.06-4.48,5.81-9.33,11.43-14.18,17.05-6.11-4.24-13-7.03-19.88-9.31-6.26-2.17-12.74-3.68-19.31-4.49-4.26-.46-8.38-.68-12.51-.91,5.26-4.41,10.29-8.77,15.07-13.09h0Zm-83.99,55.7c4.09-6.51,8.15-13.53,10.38-20.97,2.22,3.97,4.45,7.94,7.04,12.1-7.71,5.44-15.1,11.31-22.15,17.59,1.57-2.91,3.14-5.81,4.72-8.71h0Zm-7.05,16.95c8.47-8.03,17.51-15.44,27.04-22.18,7.83,11.61,16.75,22.45,26.65,32.35,3.4,3.22,7.18,6.63,10.69,9.57,.42,.39,.88,.73,1.37,1.03-5.68,6.05-11.23,12.32-16.78,18.6-.5-.16-1.04-.06-1.44,.28-.65,.3-.94,1.06-.64,1.71,.03,.07,.07,.14,.12,.21-3.13,3.47-6.01,6.89-9.26,10.12-2.35-9.91-4.22-19.91-8.99-29.86-5.97-12.57-15.85-23.07-28.76-21.83h0Zm-20.57,98.96c-1.25-21.28-6.1-41.85-5.61-61.91,.07-1.31,0-2.85,.07-4.16,2.55,.27,2.88-3.42,4.15-4.97,1.46-2.62,3.06-5.01,4.65-7.4,2.2,6.31,6.71,12.94,11.66,18.45,6.85,7.47,16.56,11,25.22,15.52,1.66,.95,3.24,2.02,4.73,3.22,.13,.23,.63,.65,.76,.89,.37,.19,1.03,1.35,1.4,1.54,.49,.64,.89,1.35,1.18,2.1-8.83,9-18.39,17.62-27.46,26.67,.8-6.63,.81-13.34,.01-19.97-.67-4.54-1.74-9.77-5.56-14.21-2.79-3.08-8.03-3.87-10.24-1.62-2.34,2.02-2.32,5.38-2.43,8.52,.37,5.89,2.2,12.02,4.37,17.81,1.84,4.87,3.3,9.87,4.38,14.96,.29,1.24,.47,2.51,.52,3.79-3.58,4.08-7.03,8.39-10.35,12.93-.42-4.07-1.07-8.09-1.48-12.16h0Zm9.97,62.09c-1.63,.36-3.23,.85-4.78,1.46l-.24,.05c-1.78-10.8-3.26-22.96-3.86-31.65-.18-1.73-.17-3.47,.02-5.19,.27,.45,.73,.74,1.24,.79,1.96,.65,3.36-.66,2.32-2.53-.41-1.22-.59-2.48-1-3.69,.96-.19,1.66-.85,1.38-1.83q.24-.05,.61,.14c2.4,.13,4.77,.53,7.07,1.2,4.54,1.44,12.7,5.54,19.07,7.4,4.3,1.49,9.16,2.09,12.64,1.14,.32,2.96,.89,5.88,1.7,8.74,2.4,8.78,6.4,17.05,11.79,24.39,.26,.47,.76,.89,1.03,1.35-15.6-2.63-34.85-5.58-48.98-1.77h0Z"/>
  <path class="cls-3" d="M525.6,898.95c-98.36,23.23-246.09,107.66-280.13-48.69-23.32-107.13,253.58-97.98,311.09-157.33,126.51-130.57,321.23-12.44,237.96,29.53-166.84,84.07-32.98,120.76-268.92,176.5Z"/>
  <path class="cls-4" d="M1276.78,1073.54c-37.09,55.57-410.61,86.04-459.16,17.76-75.04-105.44,141.07-406.79,141.07-406.79-2.79-14.4-3.31-49.22,8.04-62.81,17.19-20.65-8.38-40.27,7.53-44.72,20.44-5.7,36.82,13.61,72.43,23.26,21.1,5.66,18.15,61.04-1.79,92.04-7.1,11-20.66,12-20.66,12,0,0-83.36,205.13-65.66,244.42,21.96,48.59,126.51-7.36,287.15-30.03,76.82-10.86,51.49,124.23,31.05,154.86h0Z"/>
  <g class="cls-13">
    <g>
      <path class="cls-5" d="M1070.13,923.41c14.06,10.78,17.38,36.32,19.77,52.29,2.53,16.88,1.76,34.21-3.88,50.49-8.48,24.5-26.08,44.53-33.31,69.47-5.37,18.56-4.09,39.47,2.21,57.68,2.93,8.52,7.37,16.44,13.1,23.38,33.98,40.96,103.95,25.67,146.86,11.27,48.29-16.21,95.99-47.09,120.91-92.88,38.66-71,3.59-158.58-63.01-197.95-26.41-15.43-56.16-24.27-86.72-25.75-36.29-1.91-73.55,4.98-104.91,23.76l-11.02,28.26Z"/>
      <path class="cls-9" d="M928.85,697.77c-24.13,45.53-55.25,145.08-71.49,193.67-20.72,62.38-28.97,109.67,2.87,165.53,37.67,66.28,163.43,40.37,224.96,23.35,13.58-3.77,26.99-8.12,40.18-13.06,18.62-6.81,36.7-15.01,54.09-24.52,35.88-20.05,65.84-47.61,92.65-78.51,7.71-8.86,14.62-18.54,22.78-26.97,2.42-2.52,6.1-6.23,10.05-5.78,6.64,.76,8.16,13.01,9.06,17.77,3.41,19.73,3.14,40.35,1.79,60.25-5.29,78.66-30.85,157.25-101.18,200.21-43.41,26.54-97.5,34.79-147.01,42.06-49.42,7.25-101.45,13.8-151.5,9.24-89.34-8.14-183.61-46.96-232.49-126.19-56.51-91.78-30.5-214.44,15.88-304.71,11.57-22.51,24.94-44.15,40.81-63.87,30.94-38.43,72.38-73.42,121.27-85.16l67.27,16.7Z"/>
    </g>
  </g>
  <path class="cls-8" d="M475.74,588.09c-4.4-6.93-12.77-11.9-22.36-13.3-9.45-1.52-19.13,.66-27.02,6.08L19.15,873.99c-10.56,7.6-13.46,19.94-7.05,30.03l512.47,806.67c4.47,7.03,12.76,11.9,22.43,13.41,9.45,1.52,19.13-.66,27.02-6.08l407.21-293.12c10.56-7.6,13.46-19.94,7.05-30.03L475.74,588.09Zm-6.12,2.48l512.53,806.78c4.99,7.85,2.74,17.49-5.57,23.46l-407.21,293.12c-6.18,4.23-13.74,5.95-21.14,4.82-7.58-1.08-14.05-5.03-17.55-10.53L18.22,901.54c-5.05-7.95-2.8-17.59,5.5-23.57l407.2-293.12c6.18-4.23,13.74-5.95,21.14-4.82,7.65,1.18,14.06,5.03,17.56,10.53h0Z"/>
  <path class="cls-6" d="M554.54,580.73c-1.51-2.41-3.96-4.07-6.75-4.57-2.74-.52-5.58,.08-7.87,1.67L105.93,890.22c-4.41,3.2-5.56,9.29-2.61,13.88l507.45,798.78c1.49,2.38,3.92,4.01,6.68,4.47,2.74,.58,5.6-.03,7.88-1.67l433.99-312.39c4.42-3.15,5.6-9.21,2.67-13.78l-507.45-798.79Z"/>
  <path class="cls-2" d="M883.67,1208.87c-7.22-11.37-20.65-19.43-36.4-21.75s-31.91,1.32-43.81,9.88l-226.75,163.22c-28.89,20.8-36.68,54.36-19.12,82.01,7.22,11.37,20.65,19.42,36.39,21.74,15.75,2.31,31.91-1.32,43.75-9.84l226.8-163.26c28.84-20.75,36.69-54.35,19.13-82h0Zm-4.89,1.95h0c16.45,25.9,9.09,57.36-17.92,76.8l-226.8,163.26c-10.57,7.61-25.03,10.87-39.09,8.8-14-2.11-26.04-9.26-32.49-19.41-16.44-25.89-9.09-57.35,17.92-76.79l226.8-163.26c10.57-7.61,25.03-10.87,39.03-8.77,14.06,2.07,26.1,9.22,32.55,19.37h0Z"/>
  <path class="cls-8" d="M1066.07,1136.42c-18.49-29.09-57.06-37.68-86.15-19.19-1.02,.65-2.01,1.32-2.99,2.02l-290.17,208.87c-30.42,21.89-38.48,63.72-18.37,95.34,18.47,29.09,57.02,37.69,86.1,19.22,1.03-.66,2.05-1.34,3.04-2.06l290.17-208.87c30.39-21.9,38.45-63.7,18.38-95.33h0Z"/>
  <path class="cls-2" d="M730.71,975.87c-7.46-11.74-23.03-15.22-34.77-7.75-.42,.27-.83,.55-1.24,.84l-283.68,204.2c-12.22,8.78-15.46,25.57-7.39,38.27,7.46,11.74,23.03,15.21,34.78,7.75,.4-.25,.79-.52,1.18-.79l283.74-204.24c12.22-8.78,15.46-25.56,7.39-38.26h0Zm60.36,94.98c-7.46-11.74-23.03-15.22-34.78-7.75-.42,.27-.83,.55-1.23,.84l-283.68,204.21c-12.22,8.78-15.46,25.57-7.39,38.27,7.46,11.74,23.04,15.21,34.78,7.75,.4-.25,.79-.52,1.17-.79l283.74-204.24c12.22-8.78,15.46-25.57,7.39-38.26h0Z"/>
  <ellipse class="cls-1" cx="453.45" cy="923.5" rx="134.66" ry="111.65" transform="translate(-509.28 560.71) rotate(-43.2)"/>
  <path class="cls-7" d="M442.19,979.44c-15.73-.24-29.91-7.14-38.25-20.26-15.11-23.79-5.25-59.07,22.08-78.74,27.33-19.67,61.89-16.35,76.99,7.44,9.77,15.39,8.98,35.62-.05,53.26,37.05-12.47,70.2-6.29,78.56,16.73,9.78,27.03-18.38,67.12-62.81,89.46-44.43,22.33-88.58,18.57-98.36-8.46-6.1-17.18,2.94-39.6,21.83-59.42h0Z"/>
  <path class="cls-5" d="M1243.18,1526.3c9.51-179.39-53.55-335.52-47.81-438.07,3.68-65.06-24.49-161.61,82.43-177.26,91.67-13.41,204.96,10.82,227.29,35.48,45.21,49.76,28.79,319.59-14.17,356.39-86.11,54.97-180.47,168.53-247.74,223.46h0Z"/>
  <g class="cls-12">
    <path class="cls-9" d="M1428.57,1045.02c-7.45,9.94-11.66,22.24-15.16,34-9.24,30.34-9.6,60.63-5.38,91.85,4.13,30.83,12.29,62.78,6.73,93.96-4.21,23.07-16.59,42.15-28.7,61.74-30.4,49.27-48.35,65.45-89.52,101.98-23.41,20.7-69.07,105.8-62.16,138.91,4.75,23.1,41.26,.67,54.99-6.39,37.22-19.19,70.5-46.16,106.83-67.23,51.84-30.15,110.15-56.19,148.98-103.63,51.58-63.07,57.76-158.44,37.94-234.9-9.42-36.4-26.01-74.49-58.75-95.37l-95.8-14.92Z"/>
  </g>
  <path class="cls-4" d="M1494.5,949.7c61.63,26.02,187.12,380.09,114.98,446.06-72.14,65.96-547.72-50.24-547.72-50.24-13.63,5.44-47.64,12.49-63.2,3.89-23.42-13-9.01-42.02-16.37-56.8-9.44-19.01-76.85,23.76-74.13-13.05,1.69-21.77,110.98-33.95,145.17-20.16,12.23,4.92,15.75,18.06,15.75,18.06,0,0,338.73,31.37,374,6.6,43.61-30.69-65.71-141.32-48.69-266.38,10.47-76.87,66.37-82.29,100.21-67.97h0Z"/>
  <g class="cls-11">
    <path class="cls-5" d="M1397.2,1179.23c7.95-15.83,32.41-23.89,47.65-29.23,16.11-5.65,33.27-8.15,50.32-5.66,25.65,3.74,48.63,17.26,74.48,19.69,19.24,1.79,39.53-3.39,56.24-12.99,7.81-4.48,14.76-10.32,20.51-17.26,33.85-41.06,5.71-106.92-16.48-146.37-24.98-44.39-64.26-85.45-113.91-101.34-76.99-24.65-156.44,26.22-182.62,99.02-10.2,28.84-13.3,59.72-9.03,90.01,4.94,36,18.69,71.31,43.02,98.59l29.82,5.53Z"/>
  </g>
  <path class="cls-4" d="M1292.36,908.54s36.15-26.74,27.72-54.89c-2.16-7.39-18.48,13.44-33.19,4.42-20.09-12.4-24.94-83.86-2.24-121.04,14.08-23.04,63.59-36.87,79.74-21.17,16.15,15.7,22.51,82.6,16.95,115.36-8.79,52.26,38.84,83.7,38.84,83.7,0,0-79.11,63.32-99.02,115.87-5.83,15.43-28.79-122.26-28.79-122.26h0Z"/>
  <g class="cls-16">
    <path class="cls-9" d="M1310.65,857.5c2.87-1.55,5.2-4.72,7.36-7.09,4.95-5.3,9.5-10.95,13.63-16.91,1.52-2.37,3.05-4.79,4.75-7.13,.36-.59,1.35-2.31,2.24-2.31s.36,2.96,.27,3.34c-.6,4.14-1.56,8.22-2.87,12.2-4.93,16.27-15.07,28.45-25.92,41.11l.54-23.21Z"/>
  </g>
  <path class="cls-9" d="M1295.68,767.23c-6.73-.4-13.01-4.33-18.21-8.35-20-15.41-18.65-42.22-1.26-59.12,10.49-10.14,32.02-16.92,42.07-2.64,3.23-4.57,9.96-6.51,15.07-7.71,4.15-1.1,8.46-1.48,12.74-1.11,29.24,3.94,22.43,40.69,44.67,52.44,7.27-4.67,15.25,10.6,16.68,15.26,4.93,16.19,2.78,43.86-15.88,50.32-1.62,4.35-5.74,7.41-9.42,9.92-10.13,6.97-26.46,11.96-37.76,4.75-1.36-.88-2.6-1.94-3.68-3.14-8.07-8.98,.45-19.21,3.14-28.54,1.44-4.92,2.6-11.07-1.7-14.93-3.5-3.03-7-1.31-9.78,1.62-4.22,4.46-6.55,11.48-13.28,12.74-9.69,1.79-19.1-7.52-22.15-14.05-.63-1.38-1.25-7.46-1.25-7.46h0Z"/>
  <g>
    <path class="cls-8" d="M1233.84,695.96c0-6.43-3.65-12.31-9.42-15.15l-360.26-177.18c-8.4-4.1-18.52-.62-22.62,7.78-1.12,2.3-1.71,4.82-1.71,7.37v59.62c.01,6.43,3.66,12.29,9.42,15.15l360.33,177.21c8.35,4.1,18.44,.65,22.54-7.7,1.14-2.33,1.73-4.89,1.72-7.49v-59.62Z"/>
    <path class="cls-2" d="M890.64,591.92l-7.67-8.67,9.97-10.13-17.63-13.34,2.36-7.51,17.63,13.34-.93-18.39,9.12,4.03,.93,18.39,17.06,1.97,3.25,9.99-17.06-1.98,11.48,19.61-7.12,2.15-11.43-19.59-9.97,10.15Zm63.46,31.17l-7.67-8.67,9.97-10.13-17.63-13.34,2.36-7.51,17.63,13.34-.93-18.39,9.12,4.03,.93,18.39,17.06,1.98,3.25,9.98-17.06-1.97,11.48,19.61-7.12,2.15-11.43-19.59-9.97,10.14Zm67.99,30.33l-7.67-8.67,9.97-10.13-17.63-13.34,2.36-7.51,17.63,13.34-.93-18.39,9.12,4.03,.93,18.39,17.06,1.97,3.25,9.99-17.06-1.98,11.48,19.61-7.12,2.15-11.43-19.59-9.97,10.14Zm66.39,35.77l-7.67-8.67,9.97-10.13-17.63-13.34,2.36-7.51,17.63,13.34-.93-18.39,9.12,4.03,.93,18.39,17.06,1.98,3.25,9.98-17.06-1.97,11.48,19.61-7.12,2.15-11.43-19.59-9.97,10.14Zm70.06,34.46l-7.67-8.67,9.97-10.13-17.63-13.34,2.36-7.51,17.63,13.34-.93-18.39,9.12,4.03,.93,18.39,17.06,1.97,3.25,9.99-17.06-1.98,11.48,19.61-7.12,2.15-11.43-19.59-9.97,10.14Z"/>
  </g>
  <path class="cls-4" d="M1007.34,695.04c5.61-6.36,39.27-21.69,48.11-22.92,14.09-2.07,27.36,7.16,22.47,20.56-1.94,5.16-44.58,17-56.31,17.42-4.8,.15-16.51-12.55-14.27-15.07Z"/>
  <text class="cls-10" transform="translate(735.14 1395.49) rotate(-35.86)"><tspan x="0" y="0">Old Password</tspan></text>
</svg>