<svg xmlns="http://www.w3.org/2000/svg" data-name="Layer 1" viewBox="0 0 700 550" id="Indianwomansendingmailthroughpigeon"><path fill="#ededef" d="M244.26836,452.15145c-44.217-46.79443-49.07329-216.20993,45.18127-203.074,49.61366,6.91456,142.64146-12.23617,205.30525-33.61573,60.93193-20.78843,23.98871,137.71352-45.18123,203.07364S288.48541,498.94589,244.26836,452.15145Z" class="colorefedef svgShape"></path><path fill="#ededef" d="M232.55722,465.19841c23.58816,24.96337,60.10738,34.85881,102.83067,27.86288,42.64512-6.98181,86.38422-29.96554,123.16052-64.71743,27.64977-26.1267,53.66-69.5116,69.57557-116.05127,15.20372-44.45925,18.24664-82.68687,7.94052-99.76614-5.76018-9.54558-15.61826-12.26652-28.50892-7.86838l.35572,1.04077c12.517-4.2701,21.67275-1.78206,27.21081,7.396,10.14285,16.80815,7.06234,54.68245-8.04009,98.84176-15.8599,46.37949-41.762,89.59545-69.28949,115.60834-36.61853,34.60116-80.15247,57.48346-122.58212,64.43073-42.35185,6.9353-78.5241-2.84373-101.85423-27.5331Z" class="colorefedef svgShape"></path><path fill="#cbd3ff" fill-rule="evenodd" d="M296.32186 80.031H261.95822a8.69622 8.69622 0 01-8.4191-8.59091 8.37822 8.37822 0 017.21637-8.41909v-.17182a10.29683 10.29683 0 0118.9-5.67 7.78252 7.78252 0 0112.19909 6.35728v.34363A8.92732 8.92732 0 01296.15 62.67733a8.59091 8.59091 0 110 17.18182zm0 0M176.0709 152.02728h-38.137c-5.14849-.21125-9.34356-4.85895-9.34356-10.56294 0-5.28147 3.43233-9.71791 8.00877-10.35168v-.21126c0-6.97155 5.1485-12.67553 11.4411-12.67553a11.33259 11.33259 0 019.53426 5.704 7.93779 7.93779 0 014.95781-1.69007c4.76713 0 8.58082 4.22518 8.58082 9.50665v.42252a9.19538 9.19538 0 014.76714-1.47881c5.14849 0 9.53425 4.64769 9.53425 10.56294 0 5.704-4.19507 10.563-9.53425 10.563zm0 0M443.36964 116.52106H394.78185c-6.55935-.26915-11.904-6.19046-11.904-13.45753 0-6.72877 4.3729-12.38093 10.20343-13.18838V89.606c0-8.882 6.55935-16.149 14.57634-16.149 5.10171 0 9.47462 2.96066 12.147 7.26707a10.1129 10.1129 0 016.3164-2.15321c6.07348 0 10.93225 5.383 10.93225 12.11178v.5383a11.71523 11.71523 0 016.07348-1.88405c6.55935 0 12.14695 5.92131 12.14695 13.45753 0 7.26706-5.34466 13.45753-12.14695 13.45753zm0 0" class="colorffe3cb svgShape"></path><path fill="#505b93" d="M596.921,498.46031H103.07875a1,1,0,1,1,0-2H596.921a1,1,0,0,1,0,2Z" class="color935b50 svgShape"></path><path fill="#1d1e22" d="M194.87483,199.76769c.92688-3.08643,1.91986-6.15015,2.8808-9.2251l2.99158-9.18677c.9945-3.06323,2.04944-6.10571,3.07123-9.15967l3.10522-9.14795.45355-1.33593.53119,1.30444c2.20612,5.41748,4.47546,10.80884,6.6297,16.24805,2.17432,5.43066,4.32575,10.87109,6.38165,16.35131-2.44329-5.31884-4.79113-10.67749-7.11609-16.04541-2.345-5.35962-4.57482-10.76733-6.86792-16.14868l.98456-.03149-3.16833,9.12622c-1.0694,3.0376-2.10565,6.08642-3.20233,9.1145l-3.282,9.08716C197.13734,193.735,196.03914,196.7628,194.87483,199.76769Z" class="color1e1d22 svgShape"></path><polygon fill="#3c5af7" points="185.742 180.356 187.962 204.593 188.046 205.509 188.056 205.625 188.144 205.617 189.118 205.528 230.48 201.74 231.455 201.65 231.542 201.642 231.532 201.525 231.448 200.61 229.228 176.373 229.144 175.457 227.926 175.569 186.876 179.329 185.658 179.44 185.742 180.356" class="colorf73c4f svgShape"></polygon><polygon fill="#d9dfff" points="229.144 175.457 229.228 176.373 214.196 189.97 231.448 200.61 231.532 201.525 231.455 201.65 230.48 201.74 213.062 190.992 208.98 194.686 204.295 191.795 189.118 205.528 188.144 205.617 188.046 205.509 187.962 204.593 202.993 190.996 185.742 180.356 185.658 179.44 186.876 179.329 208.813 192.86 227.926 175.569 229.144 175.457" class="colore5e1e5 svgShape"></polygon><path fill="#5570ff" d="M207.63536,158.91174A20.76622,20.76622,0,0,0,206.969,164.75s2.55625-4.87322,7.52146-4.90182a22.71788,22.71788,0,0,1,5.45034,1.30544c1.829.8804,12.31458,4.634,18.82474,4.53809l1.95928.07982s3.14878,20.43443,8.64245,18.26059c0,0,3.9584,3.83177,6.1257,2.51107a18.6302,18.6302,0,0,0,1.83054,1.12146,2.40191,2.40191,0,0,0,3.4417-2.799c-2.04057-6.81458-7.2432-20.83775-17.28925-28.88051,0,0,3.07456-4.09731,2.96209-6.89473,0,0,3.26846-5.02626,2.44441-8.77621a12.243,12.243,0,0,0,1.52432-9.7328,15.08839,15.08839,0,0,0,.19529-11.11453,16.58587,16.58587,0,0,0-1.45259-12.18959,26.07955,26.07955,0,0,0-1.92138-10.65938,2.72836,2.72836,0,0,0-4.65109-.57348,139.50111,139.50111,0,0,0-17.98583,30.673,6.8204,6.8204,0,0,0-.39858,3.88006c.77326,4.0669,1.91494,13.57071-3.59827,16.259a11.58244,11.58244,0,0,1-4.89871.80149c-4.60054-.13119-8.55117,2.88641-9.1667,5.9339A7.10463,7.10463,0,0,0,207.63536,158.91174Z" class="colorffba55 svgShape"></path><path fill="#3c5af7" d="M206.969,164.75a10.30036,10.30036,0,0,1,4.377-4.18384s-1.457-3.31292-3.71064-1.65441A17.17817,17.17817,0,0,0,206.969,164.75Z" class="colorf73c4f svgShape"></path><path fill="#1d1e22" d="M210.06931,155.43071a.8249.8249,0,0,0,0-1.64881.8249.8249,0,0,0,0,1.64881Z" class="color1e1d22 svgShape"></path><path fill="#2339b0" d="M207.63539,158.91173a1.45362,1.45362,0,0,1,1.92951-.32227c-.35755.075-.659.07422-.96613.14868C208.28493,158.77062,207.99336,158.8629,207.63539,158.91173Z" class="colorb02336 svgShape"></path><path fill="#2a48e6" d="M230.88466 150.46373a14.27818 14.27818 0 013.4895.42871 20.26493 20.26493 0 013.34259 1.10547 18.40342 18.40342 0 013.09686 1.68579 13.55912 13.55912 0 012.66236 2.30151c-1.06006-.52148-2.04822-1.08935-3.08271-1.5791-1.02472-.5-2.04925-.9895-3.09954-1.4248C235.20814 152.06773 233.077 151.29063 230.88466 150.46373zM240.72487 165.77159a10.365 10.365 0 012.9461.06641 14.836 14.836 0 012.8592.72754 12.11141 12.11141 0 014.92276 3.18335c-.92151-.37159-1.7696-.7937-2.6525-1.14795-.87405-.3645-1.7453-.72046-2.63593-1.0293C244.39467 166.912 242.59529 166.37535 240.72487 165.77159zM249.36729 184.03209a1.16474 1.16474 0 01-1.09643-.38843 1.18235 1.18235 0 01-.20889-1.13891 1.32959 1.32959 0 011.02691.44824A1.38882 1.38882 0 01249.36729 184.03209zM255.493 186.54308a1.17629 1.17629 0 01-1.08994-.311 1.13879 1.13879 0 01-.27316-1.106 1.30514 1.30514 0 011.03994.35889A1.283 1.283 0 01255.493 186.54308zM246.43806 149.09044a2.49809 2.49809 0 01-1.01184 1.4043 3.33727 3.33727 0 01-1.68634.59985 4.32771 4.32771 0 01-3.18164-1.0686c1.14661-.031 2.14087.08862 3.09815.00146A5.89052 5.89052 0 00246.43806 149.09044zM248.88249 140.31407a2.68 2.68 0 01-2.08987 1.33057c-.78589.17432-1.58014.28638-2.37549.38623a18.92725 18.92725 0 01-4.809.00122 19.34293 19.34293 0 014.70666-1.06689c.79065-.07813 1.58234-.14405 2.38233-.14771a5.2463 5.2463 0 001.11963-.073A2.58615 2.58615 0 00248.88249 140.31407zM250.40681 130.58141a3.29262 3.29262 0 01-1.24551 1.12109 7.089 7.089 0 01-1.59244.52026c-1.03283.27222-2.06518.52369-3.08557.8064-1.02545.2644-2.03668.56445-3.03888.88843a20.27729 20.27729 0 00-2.95355 1.209 7.90948 7.90948 0 012.63269-1.98071 16.38277 16.38277 0 013.08221-1.15064 21.61633 21.61633 0 013.21595-.592 11.25527 11.25527 0 001.55017-.18823A4.4429 4.4429 0 00250.40681 130.58141zM250.6021 119.4669a3.65124 3.65124 0 01-1.28525 1.71924 4.47 4.47 0 01-.9819.52515l-.96409.38916-3.83673 1.56982c-1.2771.52051-2.53882 1.071-3.79657 1.634-1.25048.57885-2.50207 1.15771-3.74041 1.82617a21.9248 21.9248 0 017.12695-4.44922 35.40782 35.40782 0 013.97894-1.36939c.33917-.09033.67572-.18774 1.01837-.26586a4.15656 4.15656 0 00.927-.30762A3.9993 3.9993 0 00250.6021 119.4669zM249.14952 107.27721a4.21293 4.21293 0 01-1.672 2.25244l-2.401 1.37964c-1.56207.93969-3.10248 1.90869-4.56146 2.98657a34.57432 34.57432 0 00-7.80774 7.55933 16.94437 16.94437 0 013.01642-4.68335 26.03821 26.03821 0 014.1626-3.74268 31.77671 31.77671 0 014.79742-2.854c.82038-.40967 1.73132-.759 2.53125-1.09668A4.39343 4.39343 0 00249.14952 107.27721z" class="colore6952a svgShape"></path><path fill="#3c5af7" d="M374.5833,225.45847s-5.93163,48.36763-20.11818,84.10457-10.31933,67.0076-10.31933,67.0076,9.64234-4.337,15.342-2.10333,17.18148.77693,17.18148.77693.22587-42.69512,6.03641-60.59379,13.1976-87.65852,1.89662-92.5694A94.39678,94.39678,0,0,1,374.5833,225.45847Z" class="colorf73c4f svgShape"></path><polygon fill="#7a8ef9" points="434.254 472.685 434.254 487.929 418.262 489.342 417.61 477.44 434.254 472.685" class="colorf9977a svgShape"></polygon><polygon fill="#7a8ef9" points="377.732 472.685 377.732 487.929 359.859 487.929 361.759 477.248 377.732 472.685" class="colorf9977a svgShape"></polygon><path fill="#3c5af7" d="M416.00521,304.73538s7.005,24.70168,5.039,88.3576c0,0,14.25533,30.97239,14.99269,84.55413H417.11126l-20.64618-79.63525L390.812,372.9415,384.66727,395.554s1.9663,53.82753-6.26759,82.09313h-18.557l-2.94946-90.6957,6.20615-79.63525Z" class="colorf73c4f svgShape"></path><path fill="#2339b0" d="M377.60512 398.08531a9.67563 9.67563 0 01-2.9419-.41992 4.58968 4.58968 0 01-2.99951-2.42676l-.65332-1.74316 1.439 1.18066a5.11882 5.11882 0 002.67626.95117 18.32182 18.32182 0 003.02393.03907c1.02881-.084 2.085-.17676 3.1543-.30567l.67871-.07812c.85791-.10059 1.74512-.20508 2.67187-.22852l1.88282-.04785-1.61133.97559a14.86622 14.86622 0 01-6.62891 2.085Q377.94325 398.0858 377.60512 398.08531zm-3.1084-1.543c.16992.06934.32959.126.46826.16993a9.211 9.211 0 003.26807.35742 14.38889 14.38889 0 003.71289-.77637l-.52735.06055c-1.07763.12988-2.14648.22461-3.20556.30957a19.30382 19.30382 0 01-3.21631-.04492C374.8307 396.59508 374.66371 396.57066 374.49672 396.54234zM413.98158 396.2484a9.67787 9.67787 0 01-2.94189-.41992 4.43643 4.43643 0 01-2.99951-2.42676l-.65332-1.74317 1.439 1.18067a5.18406 5.18406 0 002.67627.95117 18.6499 18.6499 0 003.02393.03906c1.0288-.084 2.085-.17675 3.15429-.30566l.67871-.07813c.85791-.10058 1.74512-.2041 2.67188-.22851l1.88281-.04785-1.61133.97558a14.866 14.866 0 01-6.6289 2.085Q414.31972 396.24889 413.98158 396.2484zm-3.10644-1.542c.16943.06933.32812.125.46679.16894a9.16992 9.16992 0 003.26758.35742 14.38871 14.38871 0 003.71289-.77636l-.52734.06054c-1.07764.12989-2.14649.22461-3.20557.30957a19.091 19.091 0 01-3.21582-.04492C411.20814 394.75914 411.04213 394.73375 410.87514 394.70641z" class="colorb02336 svgShape"></path><path fill="#24327c" d="M404.33023,323.784c-.53992,4.25957-1.24089,8.48184-1.99048,12.68736-.77846,4.20072-1.65419,8.37764-2.69133,12.51259-1.0389,4.13521-2.28748,8.20766-3.68285,12.2345A100.15107,100.15107,0,0,1,390.812,372.9415a60.85155,60.85155,0,0,0,6.1771-11.32651,96.51957,96.51957,0,0,0,4.02231-12.28717,119.22613,119.22613,0,0,0,2.40844-12.68636A96.41736,96.41736,0,0,0,404.33023,323.784Z" class="color5e7c24 svgShape"></path><path fill="#24327c" d="M408.50866,337.7939c-1.42259,1.81471-2.57326,3.69356-3.82435,5.49542-.61591.90458-1.228,1.80589-1.90242,2.65365a16.24961,16.24961,0,0,1-2.25421,2.41978,6.65209,6.65209,0,0,0,3.04968-1.66338,13.27809,13.27809,0,0,0,2.27-2.61963,17.975,17.975,0,0,0,1.64637-3.0081A13.8803,13.8803,0,0,0,408.50866,337.7939Z" class="color5e7c24 svgShape"></path><path fill="#4b61d6" d="M434.25392 497.46H397.73316a2.81328 2.81328 0 01-2.799-3.09577s-.40794-3.68769.5638-4.07588l22.31572-8.9146s9.27572 11.30854 16.44028 1.8816C434.25392 483.2553 440.25543 493.9482 434.25392 497.46zM377.73175 497.46H341.211a2.81326 2.81326 0 01-2.799-3.09577s-.40794-3.68769.5638-4.07588l22.31572-8.9146s9.27572 11.30854 16.44027 1.8816C377.73175 483.2553 383.73326 493.9482 377.73175 497.46z" class="colord6694b svgShape"></path><path fill="#7a8ef9" d="M312.03712,171.44657s1.02115-3.57534-2.5787-10.944-7.21823-12.78387-5.93325-7.14725l1.05033,4.27907s-5.1007-4.17838-7.92136-6.93371a4.88276,4.88276,0,0,0-5.74275-.88134c-1.71421.95166-2.165,2.45781.46153,6.25236,3.9283,5.67528,6.16515,8.56138,7.54519,9.6788.4781.38712,5.98775,4.15648,5.98775,4.15648Z" class="colorf9977a svgShape"></path><path fill="#5e72dd" d="M307.45255 160.40332a3.567 3.567 0 00-1.0369-1.79713 3.34185 3.34185 0 00-1.84013-.97171 4.2089 4.2089 0 001.10421 1.72667A3.98118 3.98118 0 00307.45255 160.40332zM299.73633 156.6792a30.979 30.979 0 00-3.03155-3.86882c-1.08881-1.20836-2.17628-2.35925-3.35409-3.55575a8.12532 8.12532 0 001.05818 2.27848 15.61693 15.61693 0 001.50951 1.97946 18.38964 18.38964 0 001.77651 1.72856A11.97485 11.97485 0 00299.73633 156.6792zM297.697 158.00381c-1.10623-1.46687-2.33042-2.744-3.50668-4.05773-.60388-.64219-1.17563-1.30443-1.74182-1.96915a12.93686 12.93686 0 01-1.53711-2.15753 5.4708 5.4708 0 00.86035 2.62623 12.80078 12.80078 0 001.63854 2.21 17.491 17.491 0 001.99465 1.85959A12.55828 12.55828 0 00297.697 158.00381zM295.50508 158.78045a34.49315 34.49315 0 00-2.87582-3.442l-1.5154-1.60568c-.50948-.53609-1.01485-1.07284-1.58663-1.60632a9.6848 9.6848 0 002.32757 3.92733A11.65375 11.65375 0 00295.50508 158.78045z" class="colordd765e svgShape"></path><path fill="#7a8ef9" d="M365.05156 215.93785l-26.33887-20.02727a16.60338 16.60338 0 01-5.73249-4.62428l-22.48488-28.47778-6.46795 6.48049 12.691 27.651a34.04392 34.04392 0 0011.96006 14.06086l25.39668 17.05643zM354.76121 174.43813s.9827-3.5861-2.696-10.91567-7.35506-12.70564-6.00964-7.08314l1.0962 4.26754s-5.14526-4.12337-7.99534-6.84826a4.88275 4.88275 0 00-5.75188-.81964c-1.70389.97-2.13845 2.48092.52863 6.24705 3.989 5.63278 6.2567 8.49469 7.64866 9.59723.48223.382 6.032 4.092 6.032 4.092z" class="colorf9977a svgShape"></path><path fill="#7a8ef9" d="M390.8882,228.60721,378.772,203.70232c-.89456-2.31948-4.85266-5.51356-6.66247-7.21791l-26.41506-24.87567,7.0183-5.88,26.44293,15.047A34.044,34.044,0,0,1,392.12343,193.913l9.749,23.93637Z" class="colorf9977a svgShape"></path><path fill="#5e72dd" d="M341.51222,165.72862a4.22264,4.22264,0,0,1,1.09284-1.39428,5.66745,5.66745,0,0,1,1.51791-.94092,4.7948,4.7948,0,0,1,1.76974-.36572,3.469,3.469,0,0,1,1.73951.41308c-.59384.13257-1.12238.20459-1.63773.3606a12.19563,12.19563,0,0,0-1.49277.51684C343.518,164.71251,342.58589,165.22057,341.51222,165.72862Z" class="colordd765e svgShape"></path><path fill="#7a8ef9" d="M401.87242,217.84939c.53507-.71343-6.1447-2.70367-6.39049-9.09415-.36783-9.56371,3.68682-22.98116,3.68682-22.98116H370.28868a32.44274,32.44274,0,0,0,0,7.25074c.4066,2.43962-3.12946,11.05272,3.75132,20.25341.58742.78547,1.74531.88717,2.721.98733,1.55879.16,3.9245,1.17511,2.376,6.1646C379.137,220.43016,392.28669,230.63036,401.87242,217.84939Z" class="colorf9977a svgShape"></path><path fill="#6c7dd8" d="M409.02153,220.28073l-7.14911-2.43134a27.9262,27.9262,0,0,1-22.73538,2.58077L355.28677,208.032l-8.4,18.9115,14.92353,14.09095a16.55638,16.55638,0,0,1,5.14626,13.23889l-10.06332,132.678s58.34714,11.49054,69.03891-2.51937c0,0-12.139-111.40328-8.82089-124.67583,0,0,4.98625-18.231-.88415-32.68839A11.91242,11.91242,0,0,0,409.02153,220.28073Z" class="color6c7fd8 svgShape"></path><path fill="#1d1e22" d="M399.16231,210.96262s-12.4993,3.906-18.7662-10.93857c0,0,4.46692-3.40411.30254-6.15668a3.59822,3.59822,0,0,0-3.08448-.473,1.50239,1.50239,0,0,0-1.21155,1.5798l-6.1494-8.85215s-7.16645-16.85,18.46616-11.83232c0,0,12.60039.13216,14.02324,17.78274a18.925,18.925,0,0,1-.47885,5.90979Z" class="color1e1d22 svgShape"></path><path fill="#2a48e6" d="M415.2679,226.94354a10.55464,10.55464,0,0,1,1.44754,3.83777,37.37616,37.37616,0,0,1,.63518,4.06528c.26171,2.73794.314,5.49743.3193,8.2568-.01764,2.76277-.10874,5.52912-.22719,8.302-.11819,2.77354-.27166,5.55017-.33151,8.35087.32093-1.3623.55189-2.73889.83112-4.11165.25339-1.37565.414-2.76465.59461-4.152a78.0034,78.0034,0,0,0,.5388-8.3847,51.48736,51.48736,0,0,0-.642-8.41141c-.14869-.6929-.27129-1.38825-.4414-2.07441-.20614-.68067-.35545-1.36979-.61893-2.03307a15.54564,15.54564,0,0,0-.85557-1.94595A5.79858,5.79858,0,0,0,415.2679,226.94354Z" class="colore6952a svgShape"></path><path fill="#061a82" d="M381.26844 226.94354a10.55233 10.55233 0 011.44766 3.83777 37.43729 37.43729 0 01.63519 4.06528c.26171 2.73794.314 5.49743.3193 8.2568-.01777 2.76277-.10887 5.52912-.22731 8.302-.1182 2.77354-.27154 5.55017-.3314 8.35087.32094-1.3623.5519-2.73889.83113-4.11165.25339-1.37565.414-2.76465.59449-4.152a77.93908 77.93908 0 00.53879-8.3847 51.47406 51.47406 0 00-.642-8.41141c-.14856-.6929-.27116-1.38825-.44127-2.07441-.20627-.68067-.35558-1.36979-.61893-2.03307a15.54564 15.54564 0 00-.85557-1.94595A5.79917 5.79917 0 00381.26844 226.94354zM411.61063 274.92505c-.88556 2.56986-1.89158 5.07312-2.94988 7.53833a61.66667 61.66667 0 01-3.62842 7.138 34.05572 34.05572 0 01-2.20633 3.30685 25.93756 25.93756 0 01-2.5749 3.0057 18.21774 18.21774 0 01-6.61724 4.36088 14.5584 14.5584 0 007.36281-3.55533 26.04559 26.04559 0 005.24139-6.39509 40.65325 40.65325 0 003.4408-7.46216A39.83324 39.83324 0 00411.61063 274.92505z" class="color065082 svgShape"></path><path fill="#5e72dd" d="M386.78188 213.19248s-3.68245 4.207-7.24676 5.49431c.48731-3.231-1.15181-4.15173-2.476-4.37512h0S384.503 214.585 386.78188 213.19248zM370.2314 194.71568a11.84647 11.84647 0 01-.70273-4.177 11.25145 11.25145 0 01.70273-4.17993 26.25037 26.25037 0 01.29666 4.17651A24.22783 24.22783 0 01370.2314 194.71568z" class="colordd765e svgShape"></path><path fill="#3c5af7" d="M401.87242,217.84939s5.01617,57.62265-1.34474,95.54265,3.99049,67.68,3.99049,67.68,8.51581-6.26615,14.55758-5.28,16.96117-2.85054,16.96117-2.85054-8.75015-41.78946-6.83015-60.50946-1.03848-74.32958-15.36-90.351C413.84677,222.08105,405.84879,215.89759,401.87242,217.84939Z" class="colorf73c4f svgShape"></path><circle cx="394.124" cy="209.822" r="4.997" fill="#1d1e22" class="color1e1d22 svgShape"></circle><circle cx="395.806" cy="217.427" r="4.997" fill="#1d1e22" class="color1e1d22 svgShape"></circle><circle cx="397.584" cy="224.286" r="4.997" fill="#1d1e22" class="color1e1d22 svgShape"></circle><circle cx="400.148" cy="231.595" r="4.997" fill="#1d1e22" class="color1e1d22 svgShape"></circle><path fill="#1d1e22" d="M404.20768,246.24121s-4.43639-2.4705-5.88216-4.82108a4.99672,4.99672,0,0,1,8.51221-5.23558C408.2835,238.53514,404.20768,246.24121,404.20768,246.24121Z" class="color1e1d22 svgShape"></path><path fill="#3957f7" d="M395.64955 238.30016a1.10062 1.10062 0 01-.3623-2.13965l11.37207-3.9668a1.10042 1.10042 0 01.72461 2.07813l-11.37207 3.96679A1.12055 1.12055 0 01395.64955 238.30016zM380.00677 205.332c4.24678 0 4.25382-6.6 0-6.6-4.24679 0-4.25382 6.6 0 6.6z" class="colorf73943 svgShape"></path><path fill="#95a5f9" d="M385.90848,214.46205a2.47115,2.47115,0,0,1,2.01264-4.00952,2.474,2.474,0,0,1,2.22124-3.94146c-.0373-.04137-.08008-.07486-.115-.11912a2.48442,2.48442,0,1,1,4.199-2.58277,2.47283,2.47283,0,0,1,4.49425.58268c.04489-.04088.08183-.08751.1304-.12577a2.48449,2.48449,0,1,1,1.47092,4.42375,2.46337,2.46337,0,0,1-2.617,2.97953,2.47656,2.47656,0,0,1-4.42621,1.58192,2.4843,2.4843,0,1,1-3.903,3.0747,2.456,2.456,0,0,0-3.46734-1.86394Z" class="colorf9dd95 svgShape"></path><circle cx="400.822" cy="206.213" r=".637" fill="#6e83f4" class="colorf4906e svgShape"></circle><circle cx="396.267" cy="204.785" r=".637" fill="#6e83f4" class="colorf4906e svgShape"></circle><circle cx="397.967" cy="209.272" r=".637" fill="#6e83f4" class="colorf4906e svgShape"></circle><circle cx="398.212" cy="206.647" r=".637" fill="#6e83f4" class="colorf4906e svgShape"></circle><circle cx="394.422" cy="206.83" r=".637" fill="#6e83f4" class="colorf4906e svgShape"></circle><circle cx="391.866" cy="204.615" r=".637" fill="#6e83f4" class="colorf4906e svgShape"></circle><circle cx="389.728" cy="209.125" r=".637" fill="#6e83f4" class="colorf4906e svgShape"></circle><circle cx="392.288" cy="208.73" r=".637" fill="#6e83f4" class="colorf4906e svgShape"></circle><circle cx="395.001" cy="209.624" r=".637" fill="#6e83f4" class="colorf4906e svgShape"></circle><circle cx="395.36" cy="212.137" r=".637" fill="#6e83f4" class="colorf4906e svgShape"></circle><circle cx="392.273" cy="211.326" r=".637" fill="#6e83f4" class="colorf4906e svgShape"></circle><circle cx="391.536" cy="215.15" r=".637" fill="#6e83f4" class="colorf4906e svgShape"></circle><circle cx="387.662" cy="212.966" r=".637" fill="#6e83f4" class="colorf4906e svgShape"></circle><circle cx="389.959" cy="213.149" r=".637" fill="#6e83f4" class="colorf4906e svgShape"></circle><path fill="#1d1e22" d="M372.45155,185.8817a20.873,20.873,0,0,1,3.07709,5.69263,16.76776,16.76776,0,0,1,1.04037,6.46972c-.15,2.16455-.35256,4.26343-.39932,6.38623a14.66565,14.66565,0,0,0,.198,3.135,3.72322,3.72322,0,0,0,.50855,1.438,1.71361,1.71361,0,0,0,1.2676.79492,1.72259,1.72259,0,0,1-1.47677-.63208,4.07711,4.07711,0,0,1-.77426-1.47925,14.85613,14.85613,0,0,1-.49219-3.24121,53.21489,53.21489,0,0,1,.17026-6.45239,19.58721,19.58721,0,0,0-.772-6.187,27.16,27.16,0,0,0-1.02929-3.00293A29.41679,29.41679,0,0,0,372.45155,185.8817Z" class="color1e1d22 svgShape"></path><path fill="#c0c9f9" d="M285.47426 137.59215l-.97071-.24024c5.4834-22.168-12.42773-38.07031-12.60888-38.22851l.65625-.75391C272.73744 98.5316 291.10268 114.83824 285.47426 137.59215zM278.9142 144.28453l-.9707-.24023c5.48388-22.168-12.42725-38.07032-12.6084-38.22852l.65625-.75391C266.17787 105.224 284.54311 121.53062 278.9142 144.28453zM248.44887 229.75328c-8.2041 0-19.062-2.084-27.90137-11.03027l.71094-.70313c16.05029 16.24414 38.96191 9.26074 39.1914 9.18946l.30078.95312A45.77207 45.77207 0 01248.44887 229.75328zM246.16225 220.66539c-8.20411 0-19.062-2.084-27.90137-11.03027l.71094-.70313c16.03808 16.23145 38.96142 9.26074 39.19091 9.18946l.30079.95312A45.76627 45.76627 0 01246.16225 220.66539z" class="colorf9e0c0 svgShape"></path><path fill="#5570ff" d="M478.37634,199.4427l6.726,35.42241,13.72487,5.10878,13.72645-5.10878,6.726-35.42241Z" class="colorffba55 svgShape"></path><path fill="#323b6b" d="M462.68491,185.02985a6.64373,6.64373,0,0,1,7.1942-1.30815,5.32019,5.32019,0,0,1,2.76138,3.19762c.054.19319.68561,2.59638-.79936,4.14207-.699.7276-2.006,1.40986-2.90666.94464a1.44721,1.44721,0,0,1-.79935-1.16267c.00394-.40786.29431-.49183.43585-1.01738.15967-.59276.041-1.417-.36331-1.59871-.43013-.19338-1.18238.34084-1.526.94464-.64027,1.12521-.07432,2.86684.89614,3.8515,1.5725,1.59536,4.15744,1.153,5.23219.96908a10.35063,10.35063,0,0,0,6.00749-3.682,9.53687,9.53687,0,0,0,2.32533-4.26329,10.859,10.859,0,0,0-.19378-4.65086c-.61366-2.94431-1.37556-3.38055-2.71288-7.17015-1.01383-2.87275-1.5173-4.35082-1.35664-6.39485a8.21535,8.21535,0,0,1,1.74419-4.84463,7.92672,7.92672,0,0,1,5.23219-2.71288,8.549,8.549,0,0,1,6.7824,2.71288l2.42231-2.74619s-2.90666-1.08106,1.308-8.348l-.79916-.6178a33.44008,33.44008,0,1,1,66.88017,0l3.38765,90.77648h1.166a2.61609,2.61609,0,1,1,0,5.23218h-.97066L564.43987,258.2h.56339a2.6161,2.6161,0,1,1,0,5.23219H564.635l8.48757,227.43914h.50425a3.29432,3.29432,0,1,1,0,6.58863H537.29212a3.29432,3.29432,0,1,1,0-6.58863h.79522l8.48756-227.43914h-.36863a2.6161,2.6161,0,1,1,0-5.23219h.56379l.40727-10.91658h-.97106a2.61609,2.61609,0,1,1,0-5.23218h1.16641l3.38765-90.77648a23.75083,23.75083,0,1,0-47.50165,0l-.79955.6178c4.215,7.26694,1.30814,8.348,1.30814,8.348l2.42232,2.74619a8.549,8.549,0,0,1,6.7824-2.71288,7.92672,7.92672,0,0,1,5.23218,2.71288,8.21528,8.21528,0,0,1,1.74419,4.84463c.16066,2.044-.3428,3.5221-1.35663,6.39485-1.33732,3.7896-2.09922,4.22584-2.71289,7.17015a10.859,10.859,0,0,0-.19377,4.65086,9.53687,9.53687,0,0,0,2.32532,4.26329,10.35066,10.35066,0,0,0,6.00749,3.682c1.07475.18392,3.65969.62628,5.23219-.96908.97046-.98466,1.53642-2.72629.89614-3.8515-.34359-.6038-1.09583-1.138-1.526-.94464-.40431.18175-.523,1.00595-.3633,1.59871.14153.52555.4319.60952.43585,1.01738a1.44722,1.44722,0,0,1-.79936,1.16267c-.90068.46522-2.20764-.217-2.90666-.94464-1.485-1.54569-.85337-3.94888-.79935-4.14207a5.32015,5.32015,0,0,1,2.76137-3.19762,6.64373,6.64373,0,0,1,7.1942,1.30815,7.10931,7.10931,0,0,1,2.18025,4.72359c.14548,4.09258-3.73618,6.87131-4.79634,7.63025-3.73637,2.67484-7.86385,2.78917-10.90041,2.83412-8.1284.12024-15.34192.16756-22.21244.14942-6.87072.01814-14.08424-.02918-22.21263-.14942-3.03657-.045-7.164-.15928-10.90042-2.83412-1.06016-.75894-4.94181-3.53767-4.79633-7.63025A7.10927,7.10927,0,0,1,462.68491,185.02985Z" class="color6b3832 svgShape"></path><path fill="#323b6b" d="M478.37634,199.4427l6.726,35.42241,13.72487,5.10878,13.72645-5.10878,6.726-35.42241Zm32.76117,34.227-11.50284,4.28v-36.8922H517.3305Zm-30.812-32.61215h17.69425v36.8922l-11.50126-4.28Z" class="color6b3832 svgShape"></path><circle cx="498.841" cy="241.251" r="3.416" fill="#323b6b" class="color6b3832 svgShape"></circle><path fill="#36469d" d="M524.76923,496.96776l.78321-.47071c-.22071-.36621-22.041-36.73046-25.4375-45.78906l-.85547.32031C502.68623,460.166,523.86982,495.46873,524.76923,496.96776Z" class="color8b9d36 svgShape"></path><path fill="#36469d" d="M507.0824 431.63965a39.224 39.224 0 00-2.10917 7.0694 66.09034 66.09034 0 00-1.078 7.16753 64.77426 64.77426 0 00-.29691 7.24176 38.69448 38.69448 0 00.74451 7.34079 38.72916 38.72916 0 002.11408-7.069 64.88029 64.88029 0 001.07308-7.168 66.08876 66.08876 0 00.292-7.24221A39.18945 39.18945 0 00507.0824 431.63965zM515.13566 442.65086a37.414 37.414 0 00-2.73688 6.66543 62.83414 62.83414 0 00-1.71952 6.86081 61.876 61.876 0 00-.94915 7.00877 37.00438 37.00438 0 00.07847 7.206 36.97 36.97 0 002.74178-6.66448 61.87578 61.87578 0 001.71462-6.86182 62.93791 62.93791 0 00.94424-7.00965A37.44848 37.44848 0 00515.13566 442.65086zM519.57289 455.46987a31.74553 31.74553 0 00-2.32985 6.19548 52.73738 52.73738 0 00-1.30357 6.34193 51.853 51.853 0 00-.5274 6.45272 31.34443 31.34443 0 00.50823 6.60056 31.34566 31.34566 0 002.33475-6.19481 51.76636 51.76636 0 001.29867-6.3426 52.73658 52.73658 0 00.5225-6.45344A31.71449 31.71449 0 00519.57289 455.46987zM525.16078 468.26519a24.30262 24.30262 0 00-2.36239 5.27241 39.60429 39.60429 0 00-1.341 5.44874 38.87019 38.87019 0 00-.56841 5.58215 24.02106 24.02106 0 00.46231 5.76014 24.00274 24.00274 0 002.3673-5.27158 38.93691 38.93691 0 001.33656-5.44957 39.6679 39.6679 0 00.56351-5.583A24.30224 24.30224 0 00525.16078 468.26519zM530.09108 476.26272a21.8801 21.8801 0 00-2.4939 4.62938 37.72728 37.72728 0 00-1.56795 4.80236 43.11092 43.11092 0 00-.94692 4.92484c-.10253.83591-.1966 1.66714-.259 2.51441a18.711 18.711 0 01-.27551 2.57461 5.05513 5.05513 0 00.60631-.38274l.49218-.49319a9.09975 9.09975 0 00.86088-1.07676 17.24534 17.24534 0 001.32363-2.30365 25.65213 25.65213 0 001.73691-4.85753 28.753 28.753 0 00.81763-5.05781A19.04024 19.04024 0 00530.09108 476.26272zM502.29386 456.52139a31.453 31.453 0 00-5.55489-4.8169 51.476 51.476 0 00-6.13981-3.66123 50.57236 50.57236 0 00-6.583-2.78653 31.09317 31.09317 0 00-7.17321-1.61983 31.0853 31.0853 0 005.55177 4.82242 50.57769 50.57769 0 006.14293 3.65571 51.45553 51.45553 0 006.58563 2.781A31.45067 31.45067 0 00502.29386 456.52139zM507.75023 466.7129a38.74647 38.74647 0 00-6.85133-4.4851 64.51138 64.51138 0 00-7.307-3.27247 63.35685 63.35685 0 00-7.65158-2.35481 38.305 38.305 0 00-8.11122-1.13065 38.31238 38.31238 0 006.84866 4.49089 63.36568 63.36568 0 007.30919 3.26668 64.49677 64.49677 0 007.65381 2.349A38.74619 38.74619 0 00507.75023 466.7129zM514.17314 478.04115a33.04252 33.04252 0 00-6.17592-4.33024 54.30053 54.30053 0 00-6.64715-3.12351 53.33815 53.33815 0 00-7.00336-2.21026 32.66 32.66 0 00-7.47861-.992 32.67149 32.67149 0 006.1737 4.336 53.34437 53.34437 0 006.64938 3.11777 54.30664 54.30664 0 007.00559 2.20452A33.04083 33.04083 0 00514.17314 478.04115zM519.24923 486.76052a24.77081 24.77081 0 00-5.42427-3.57284 39.55969 39.55969 0 00-5.81125-2.33659 38.85 38.85 0 00-6.10459-1.4011 24.50794 24.50794 0 00-6.49512-.15308 24.50614 24.50614 0 005.42248 3.57869 38.84838 38.84838 0 005.81347 2.33074 39.54019 39.54019 0 006.10593 1.39513A24.78324 24.78324 0 00519.24923 486.76052z" class="color8b9d36 svgShape"></path><path fill="#36469d" d="M523.25624 494.5843a32.58067 32.58067 0 00-5.96237-4.5303 53.47133 53.47133 0 00-6.47685-3.34152 52.54 52.54 0 00-6.8665-2.442 32.21411 32.21411 0 00-7.38587-1.24182 32.20258 32.20258 0 005.9597 4.536 52.51806 52.51806 0 006.47953 3.33595 53.46031 53.46031 0 006.86872 2.43618A32.57986 32.57986 0 00523.25624 494.5843zM500.52084 452.183a22.93131 22.93131 0 00-.17788-7.3224 34.50249 34.50249 0 00-1.86575-6.66142 33.93615 33.93615 0 00-3.14435-6.16076 22.70256 22.70256 0 00-4.84917-5.49348 22.68908 22.68908 0 00.16941 7.32551 33.9671 33.9671 0 001.87378 6.6583 34.50649 34.50649 0 003.15282 6.15759A22.93538 22.93538 0 00500.52084 452.183z" class="color8b9d36 svgShape"></path><path fill="#1a2666" d="M527.12275,497.46l.91211-.01563c-.04-2.49414-1.12305-61.31445-12.88965-79.94434l-.77148.48829C526.00361,436.40233,527.113,496.85155,527.12275,497.46Z" class="color50661a svgShape"></path><path fill="#1a2666" d="M518.5399 425.90253a41.84155 41.84155 0 01-.27373-8.23382 74.02178 74.02178 0 01.88985-7.98723c.4262-2.634 1.00621-5.24171 1.68832-7.82779.68121-2.60313 1.54164-5.10768 2.46091-7.7754a11.40849 11.40849 0 01.58893 2.04708 18.24354 18.24354 0 01.32188 2.08014 35.25171 35.25171 0 01.18546 4.12928 53.01735 53.01735 0 01-.74318 8.09277 58.81524 58.81524 0 01-1.87244 7.87973A37.04878 37.04878 0 01518.5399 425.90253zM504.07711 388.65485a29.58394 29.58394 0 015.15054 6.61773 46.50837 46.50837 0 013.452 7.25341 45.704 45.704 0 012.16668 7.73456 29.26548 29.26548 0 01.45206 8.37625 29.26423 29.26423 0 01-5.15857-6.61471 45.66015 45.66015 0 01-3.444-7.25648 46.50816 46.50816 0 01-2.15865-7.73757A29.56867 29.56867 0 01504.07711 388.65485zM494.38056 403.64583a68.15042 68.15042 0 016.78268 6.2497c2.09624 2.173 4.09662 4.39466 6.05377 6.62832l5.8148 6.67317c.97546 1.09276 1.96116 2.16952 3.00259 3.18944a13.71029 13.71029 0 003.54827 2.68043 6.159 6.159 0 01-2.42837-.06158 11.36875 11.36875 0 01-2.33966-.73588 22.595 22.595 0 01-4.16706-2.3893 40.89824 40.89824 0 01-6.86427-6.3503 54.18751 54.18751 0 01-5.45458-7.45163A38.78113 38.78113 0 01494.38056 403.64583zM494.38056 418.6368a56.13526 56.13526 0 018.43176 5.18587 95.52358 95.52358 0 017.56509 6.14851 93.9077 93.9077 0 016.90929 6.877 55.50233 55.50233 0 016.03416 7.8488 55.48012 55.48012 0 01-8.43622-5.1813 93.83535 93.83535 0 01-7.56108-6.15307 95.51529 95.51529 0 01-6.90484-6.8816A56.12679 56.12679 0 01494.38056 418.6368zM495.36671 430.39883a55.50687 55.50687 0 018.5187 4.9264 94.40334 94.40334 0 017.67788 5.91128 92.77808 92.77808 0 017.04081 6.65656 54.88439 54.88439 0 016.19108 7.65075 54.8569 54.8569 0 01-8.52316-4.92167 92.71607 92.71607 0 01-7.67342-5.91595 94.39966 94.39966 0 01-7.0368-6.66125A55.48049 55.48049 0 01495.36671 430.39883zM496.02385 442.97135a51.60627 51.60627 0 018.533 4.13948 87.39193 87.39193 0 017.75813 5.17734 85.93517 85.93517 0 017.17143 5.96294 50.99412 50.99412 0 016.389 7.01077 51.04053 51.04053 0 01-8.53653-4.13452 85.93216 85.93216 0 01-7.75457-5.18236 87.4508 87.4508 0 01-7.16742-5.96789A51.60439 51.60439 0 01496.02385 442.97135zM495.36671 452.09257a57.41567 57.41567 0 018.928 4.53308 97.801 97.801 0 018.14465 5.56476 96.07794 96.07794 0 017.55216 6.34561 56.73948 56.73948 0 016.76084 7.387 56.74539 56.74539 0 01-8.93152-4.52812 96.08186 96.08186 0 01-8.14109-5.56972 97.78252 97.78252 0 01-7.54815-6.35052A57.41 57.41 0 01495.36671 452.09257zM493.06584 460.63858a74.84531 74.84531 0 019.33232 5.1794c2.9629 1.89674 5.82952 3.90186 8.62435 5.99464 2.80286 2.08058 5.52815 4.24971 8.20529 6.49106 2.70478 2.22213 5.25976 4.53654 8.05816 6.8286a22.56421 22.56421 0 01-5.22543-1.52492 51.09919 51.09919 0 01-4.85229-2.336 79.64028 79.64028 0 01-8.91726-5.80278 91.94511 91.94511 0 01-8.101-6.83617A58.23834 58.23834 0 01493.06584 460.63858zM490.2719 469.51331a76.97421 76.97421 0 0110.13389 4.81579c3.2362 1.80283 6.377 3.73858 9.44556 5.77619q4.60351 3.0555 8.985 6.42575 2.19007 1.68987 4.33826 3.44049a38.6594 38.6594 0 004.40379 3.37206 8.50656 8.50656 0 01-2.847-.489c-.9175-.27172-1.80824-.6023-2.68918-.94613-1.757-.69749-3.45465-1.49528-5.11978-2.34066a97.16236 97.16236 0 01-9.59891-5.66267 109.72868 109.72868 0 01-8.93465-6.62147A67.91125 67.91125 0 01490.2719 469.51331zM521.37263 436.34348a45.42337 45.42337 0 011.30981-8.78875 76.32689 76.32689 0 012.526-8.34382 75.12473 75.12473 0 013.44707-8.00712 44.93427 44.93427 0 014.67485-7.558 44.939 44.939 0 01-1.30357 8.79087 75.12854 75.12854 0 01-2.53225 8.3417 76.43112 76.43112 0 01-3.45286 8.005A45.42432 45.42432 0 01521.37263 436.34348zM523.32086 446.60583a46.414 46.414 0 012.52244-8.62441 78.15818 78.15818 0 013.66819-8.02055 76.86126 76.86126 0 014.53576-7.56359 45.91962 45.91962 0 015.69265-6.954 45.921 45.921 0 01-2.51664 8.6273 76.954 76.954 0 01-3.674 8.01766 78.25683 78.25683 0 01-4.54111 7.56069A46.47347 46.47347 0 01523.32086 446.60583zM524.79518 456.52991a50.84133 50.84133 0 013.69226-8.65829 86.15533 86.15533 0 014.76536-7.93306 84.64289 84.64289 0 015.57808-7.38409 50.27243 50.27243 0 016.66141-6.65194 50.26715 50.26715 0 01-3.68736 8.6618 84.54071 84.54071 0 01-4.7707 7.92955 86.06333 86.06333 0 01-5.583 7.38069A50.84416 50.84416 0 01524.79518 456.52991zM525.8754 467.47882a65.5578 65.5578 0 015.28606-9.29269q2.94708-4.39814 6.28916-8.47283 3.33093-4.08384 7.04794-7.85237a64.54272 64.54272 0 018.0604-7.02476 64.53539 64.53539 0 01-5.28116 9.29659q-2.94709 4.39789-6.29362 8.46894-3.339 4.0779-7.05285 7.84846A65.47892 65.47892 0 01525.8754 467.47882zM526.75232 478.83237a66.20513 66.20513 0 016.25974-8.73492q3.40648-4.08927 7.17277-7.81564 3.75556-3.73677 7.86289-7.12a65.20688 65.20688 0 018.78441-6.19186 65.20821 65.20821 0 01-6.25528 8.73927q-3.4065 4.08885-7.17678 7.81129-3.76293 3.73-7.86736 7.11554A66.18176 66.18176 0 01526.75232 478.83237zM527.286 486.1123a57.69951 57.69951 0 016.801-7.38431 98.3019 98.3019 0 017.582-6.351 96.56656 96.56656 0 018.17318-5.569 57.03694 57.03694 0 018.96229-4.52589 57.05155 57.05155 0 01-6.79739 7.38921 96.64217 96.64217 0 01-7.5856 6.34612 98.37492 98.37492 0 01-8.1772 5.56409A57.70988 57.70988 0 01527.286 486.1123zM527.57842 492.19315a61.07851 61.07851 0 017.94538-6.60625q4.16751-2.96262 8.58869-5.48178 4.41426-2.53155 9.07552-4.63088a60.362 60.362 0 019.72508-3.49577 60.371 60.371 0 01-7.9427 6.61154q-4.16751 2.96229-8.59136 5.47643-4.419 2.52345-9.07865 4.62559A61.08788 61.08788 0 01527.57842 492.19315zM527.3515 496.13742a65.9641 65.9641 0 019.29576-5.35428c3.18938-1.53975 6.44118-2.91164 9.746-4.13976q4.95662-1.84384 10.08664-3.22059a65.00388 65.00388 0 0110.54182-1.99437 65.00424 65.00424 0 01-9.29353 5.36008q-4.78474 2.30911-9.74826 4.134c-3.30663 1.22332-6.66677 2.303-10.08887 3.21479A65.95532 65.95532 0 01527.3515 496.13742z" class="color50661a svgShape"></path><path fill="#24327c" d="M528.94892,495.82323c.89942-1.499,22.083-36.80078,25.50977-45.93946l-.85547-.32031c-3.39649,9.05957-25.2168,45.42285-25.4375,45.78906Z" class="color5e7c24 svgShape"></path><path fill="#24327c" d="M546.68184 430.63965a39.224 39.224 0 012.10917 7.0694 66.09034 66.09034 0 011.078 7.16753 64.77426 64.77426 0 01.29691 7.24176 38.69368 38.69368 0 01-.74452 7.34079 38.72991 38.72991 0 01-2.11407-7.069 64.88029 64.88029 0 01-1.07308-7.168 66.08876 66.08876 0 01-.292-7.24221A39.18945 39.18945 0 01546.68184 430.63965zM538.62858 441.65086a37.414 37.414 0 012.73688 6.66543 62.83414 62.83414 0 011.71952 6.86081 61.876 61.876 0 01.94915 7.00877 37.00438 37.00438 0 01-.07847 7.206 36.97 36.97 0 01-2.74178-6.66448 61.87578 61.87578 0 01-1.71462-6.86182 62.93791 62.93791 0 01-.94424-7.00965A37.44848 37.44848 0 01538.62858 441.65086zM534.19135 454.46987a31.74553 31.74553 0 012.32985 6.19548 52.73738 52.73738 0 011.30357 6.34193 51.853 51.853 0 01.5274 6.45272 31.34443 31.34443 0 01-.50823 6.60056 31.34566 31.34566 0 01-2.33475-6.19481 51.76636 51.76636 0 01-1.29867-6.3426 52.73658 52.73658 0 01-.5225-6.45344A31.71449 31.71449 0 01534.19135 454.46987zM528.60346 467.26519a24.30262 24.30262 0 012.36239 5.27241 39.60281 39.60281 0 011.341 5.44874 38.8702 38.8702 0 01.56842 5.58215 24.02106 24.02106 0 01-.46231 5.76014 24.00274 24.00274 0 01-2.3673-5.27158 38.93691 38.93691 0 01-1.33656-5.44957 39.6679 39.6679 0 01-.56351-5.583A24.30224 24.30224 0 01528.60346 467.26519zM523.67316 475.26272a21.8801 21.8801 0 012.4939 4.62938 37.72728 37.72728 0 011.56795 4.80236 43.11092 43.11092 0 01.94692 4.92484c.10253.83591.1966 1.66714.259 2.51441a18.711 18.711 0 00.27551 2.57461 5.05513 5.05513 0 01-.60631-.38274l-.49218-.49319a9.09975 9.09975 0 01-.86088-1.07676 17.24534 17.24534 0 01-1.32363-2.30365 25.65213 25.65213 0 01-1.73691-4.85753 28.753 28.753 0 01-.81763-5.05781A19.04024 19.04024 0 01523.67316 475.26272zM551.47038 455.52139a31.453 31.453 0 015.55489-4.8169 51.476 51.476 0 016.13981-3.66123 50.57236 50.57236 0 016.583-2.78653 31.09317 31.09317 0 017.17321-1.61983 31.0853 31.0853 0 01-5.55177 4.82242 50.57769 50.57769 0 01-6.14293 3.65571 51.45553 51.45553 0 01-6.58563 2.781A31.45067 31.45067 0 01551.47038 455.52139zM546.014 465.7129a38.74647 38.74647 0 016.85133-4.4851 64.51138 64.51138 0 017.307-3.27247 63.35685 63.35685 0 017.65158-2.35481 38.305 38.305 0 018.11122-1.13065 38.31238 38.31238 0 01-6.84866 4.49089 63.36568 63.36568 0 01-7.30919 3.26668 64.49677 64.49677 0 01-7.65381 2.349A38.74619 38.74619 0 01546.014 465.7129zM539.5911 477.04115a33.04252 33.04252 0 016.17592-4.33024 54.30053 54.30053 0 016.64715-3.12351 53.33815 53.33815 0 017.00336-2.21026 32.66 32.66 0 017.47861-.992 32.67149 32.67149 0 01-6.1737 4.336 53.34437 53.34437 0 01-6.64938 3.11777 54.30713 54.30713 0 01-7.00559 2.20452A33.04083 33.04083 0 01539.5911 477.04115zM534.515 485.76052a24.77057 24.77057 0 015.42427-3.57284 39.55969 39.55969 0 015.81125-2.33659 38.85 38.85 0 016.10459-1.4011 24.50794 24.50794 0 016.49512-.15308 24.50614 24.50614 0 01-5.42248 3.57869 38.84806 38.84806 0 01-5.81348 2.33074 39.5398 39.5398 0 01-6.10592 1.39513A24.78324 24.78324 0 01534.515 485.76052z" class="color5e7c24 svgShape"></path><path fill="#24327c" d="M530.508 493.5843a32.58067 32.58067 0 015.96237-4.5303 53.4706 53.4706 0 016.47685-3.34152 52.54041 52.54041 0 016.86649-2.442 32.21428 32.21428 0 017.38588-1.24182 32.20258 32.20258 0 01-5.9597 4.536 52.51806 52.51806 0 01-6.47953 3.33595 53.46085 53.46085 0 01-6.86872 2.43618A32.57986 32.57986 0 01530.508 493.5843zM553.2434 451.183a22.93131 22.93131 0 01.17788-7.3224 34.50249 34.50249 0 011.86575-6.66142 33.93615 33.93615 0 013.14435-6.16076 22.70256 22.70256 0 014.84917-5.49348 22.68908 22.68908 0 01-.16941 7.32551 33.9671 33.9671 0 01-1.87378 6.6583 34.50649 34.50649 0 01-3.15282 6.15759A22.93538 22.93538 0 01553.2434 451.183z" class="color5e7c24 svgShape"></path><path fill="#36469d" d="M160.268,496.96776l-.78321-.47071c.22071-.36621,22.041-36.73046,25.4375-45.78906l.85547.32031C182.351,460.166,161.16743,495.46873,160.268,496.96776Z" class="color8b9d36 svgShape"></path><path fill="#36469d" d="M177.95485 431.63965a39.224 39.224 0 012.10917 7.0694 66.09034 66.09034 0 011.078 7.16753 64.77426 64.77426 0 01.29691 7.24176 38.69448 38.69448 0 01-.74451 7.34079 38.72912 38.72912 0 01-2.11407-7.069 64.88032 64.88032 0 01-1.07309-7.168 66.08876 66.08876 0 01-.292-7.24221A39.18945 39.18945 0 01177.95485 431.63965zM169.90159 442.65086a37.414 37.414 0 012.73688 6.66543 62.83414 62.83414 0 011.71952 6.86081 61.876 61.876 0 01.94915 7.00877 37.00359 37.00359 0 01-.07847 7.206 36.97 36.97 0 01-2.74178-6.66448 61.87578 61.87578 0 01-1.71462-6.86182 62.93791 62.93791 0 01-.94424-7.00965A37.44929 37.44929 0 01169.90159 442.65086zM165.46436 455.46987a31.74553 31.74553 0 012.32985 6.19548 52.73738 52.73738 0 011.30357 6.34193 51.8511 51.8511 0 01.5274 6.45272 31.34376 31.34376 0 01-.50823 6.60056 31.34628 31.34628 0 01-2.33475-6.19481 51.76636 51.76636 0 01-1.29867-6.3426 52.73856 52.73856 0 01-.5225-6.45344A31.71449 31.71449 0 01165.46436 455.46987zM159.87647 468.26519a24.30266 24.30266 0 012.3624 5.27241 39.6057 39.6057 0 011.341 5.44874 38.87162 38.87162 0 01.56842 5.58215 24.02108 24.02108 0 01-.46232 5.76014 24.00269 24.00269 0 01-2.36729-5.27158 38.93555 38.93555 0 01-1.33657-5.44957 39.66938 39.66938 0 01-.56351-5.583A24.30277 24.30277 0 01159.87647 468.26519zM154.94617 476.26272a21.88015 21.88015 0 012.49391 4.62938 37.72722 37.72722 0 011.56794 4.80236 43.11092 43.11092 0 01.94692 4.92484c.10254.83591.1966 1.66714.259 2.51441a18.71253 18.71253 0 00.27551 2.57461 5.05513 5.05513 0 01-.60631-.38274l-.49218-.49319a9.09975 9.09975 0 01-.86088-1.07676 17.24753 17.24753 0 01-1.32363-2.30365 25.65283 25.65283 0 01-1.73691-4.85753 28.753 28.753 0 01-.81763-5.05781A19.04062 19.04062 0 01154.94617 476.26272zM182.74339 456.52139a31.453 31.453 0 015.55489-4.8169 51.476 51.476 0 016.13981-3.66123 50.57294 50.57294 0 016.583-2.78653 31.09314 31.09314 0 017.17322-1.61983 31.085 31.085 0 01-5.55178 4.82242 50.57769 50.57769 0 01-6.14293 3.65571 51.45492 51.45492 0 01-6.58563 2.781A31.45067 31.45067 0 01182.74339 456.52139zM177.287 466.7129a38.74647 38.74647 0 016.85133-4.4851 64.51153 64.51153 0 017.307-3.27247 63.35575 63.35575 0 017.65158-2.35481 38.30479 38.30479 0 018.11122-1.13065 38.31281 38.31281 0 01-6.84867 4.49089 63.36568 63.36568 0 01-7.30919 3.26668 64.49677 64.49677 0 01-7.65381 2.349A38.74619 38.74619 0 01177.287 466.7129zM170.86411 478.04115a33.04252 33.04252 0 016.17592-4.33024 54.3 54.3 0 016.64716-3.12351 53.3372 53.3372 0 017.00336-2.21026 32.65994 32.65994 0 017.4786-.992 32.67143 32.67143 0 01-6.17369 4.336 53.34571 53.34571 0 01-6.64938 3.11777 54.30762 54.30762 0 01-7.00559 2.20452A33.04092 33.04092 0 01170.86411 478.04115zM165.788 486.76052a24.77034 24.77034 0 015.42427-3.57284 39.55913 39.55913 0 015.81124-2.33659 38.85 38.85 0 016.10459-1.4011 24.508 24.508 0 016.49513-.15308 24.50643 24.50643 0 01-5.42249 3.57869 38.848 38.848 0 01-5.81347 2.33074 39.54019 39.54019 0 01-6.10593 1.39513A24.78318 24.78318 0 01165.788 486.76052z" class="color8b9d36 svgShape"></path><path fill="#36469d" d="M161.781 494.5843a32.58067 32.58067 0 015.96237-4.5303 53.47133 53.47133 0 016.47685-3.34152 52.54054 52.54054 0 016.8665-2.442 32.21411 32.21411 0 017.38587-1.24182 32.20191 32.20191 0 01-5.9597 4.536 52.51794 52.51794 0 01-6.47952 3.33595 53.461 53.461 0 01-6.86873 2.43618A32.57986 32.57986 0 01161.781 494.5843zM184.51641 452.183a22.93131 22.93131 0 01.17788-7.3224 34.50321 34.50321 0 011.86575-6.66142 33.9362 33.9362 0 013.14436-6.16076 22.70251 22.70251 0 014.84916-5.49348 22.6888 22.6888 0 01-.16941 7.32551 33.96708 33.96708 0 01-1.87377 6.6583 34.5072 34.5072 0 01-3.15283 6.15759A22.93538 22.93538 0 01184.51641 452.183z" class="color8b9d36 svgShape"></path><path fill="#1a2666" d="M157.9145,497.46l-.91211-.01563c.04-2.49414,1.12305-61.31445,12.88965-79.94434l.77149.48829C159.03364,436.40233,157.92427,496.85155,157.9145,497.46Z" class="color50661a svgShape"></path><path fill="#1a2666" d="M166.49735 425.90253a41.84155 41.84155 0 00.27373-8.23382 74.02178 74.02178 0 00-.88985-7.98723c-.4262-2.634-1.00621-5.24171-1.68831-7.82779-.68121-2.60313-1.54164-5.10768-2.46092-7.7754a11.40931 11.40931 0 00-.58893 2.04708 18.24354 18.24354 0 00-.32188 2.08014 35.25171 35.25171 0 00-.18546 4.12928 53.01861 53.01861 0 00.74318 8.09277 58.81524 58.81524 0 001.87244 7.87973A37.04933 37.04933 0 00166.49735 425.90253zM180.96014 388.65485a29.5836 29.5836 0 00-5.15053 6.61773 46.50752 46.50752 0 00-3.452 7.25341 45.703 45.703 0 00-2.16667 7.73456 29.26476 29.26476 0 00-.45206 8.37625 29.26446 29.26446 0 005.15856-6.61471 45.66015 45.66015 0 003.444-7.25648 46.50816 46.50816 0 002.15865-7.73757A29.5683 29.5683 0 00180.96014 388.65485zM190.65669 403.64583a68.15153 68.15153 0 00-6.78268 6.2497c-2.09623 2.173-4.09662 4.39466-6.05376 6.62832l-5.81481 6.67317c-.97545 1.09276-1.96116 2.16952-3.00259 3.18944a13.71029 13.71029 0 01-3.54827 2.68043 6.159 6.159 0 002.42838-.06158 11.36866 11.36866 0 002.33965-.73588 22.59463 22.59463 0 004.16706-2.3893 40.89824 40.89824 0 006.86427-6.3503 54.18841 54.18841 0 005.45459-7.45163A38.78157 38.78157 0 00190.65669 403.64583zM190.65669 418.6368a56.13576 56.13576 0 00-8.43176 5.18587 95.52358 95.52358 0 00-7.56509 6.14851 93.9077 93.9077 0 00-6.90929 6.877 55.50153 55.50153 0 00-6.03415 7.8488 55.4811 55.4811 0 008.43622-5.1813 93.83885 93.83885 0 007.56108-6.15307 95.51718 95.51718 0 006.90483-6.8816A56.12679 56.12679 0 00190.65669 418.6368zM189.67054 430.39883a55.5063 55.5063 0 00-8.51869 4.9264 94.40176 94.40176 0 00-7.67789 5.91128 92.78 92.78 0 00-7.04081 6.65656 54.88439 54.88439 0 00-6.19108 7.65075 54.85643 54.85643 0 008.52316-4.92167 92.71607 92.71607 0 007.67342-5.91595 94.39966 94.39966 0 007.0368-6.66125A55.48049 55.48049 0 00189.67054 430.39883zM189.01341 442.97135a51.60637 51.60637 0 00-8.533 4.13948 87.39339 87.39339 0 00-7.75813 5.17734 85.93517 85.93517 0 00-7.17143 5.96294 50.99342 50.99342 0 00-6.389 7.01077 51.04129 51.04129 0 008.53653-4.13452 85.932 85.932 0 007.75456-5.18236 87.4508 87.4508 0 007.16742-5.96789A51.60446 51.60446 0 00189.01341 442.97135zM189.67054 452.09257a57.41512 57.41512 0 00-8.92795 4.53308 97.79947 97.79947 0 00-8.14466 5.56476 96.07794 96.07794 0 00-7.55216 6.34561 56.74089 56.74089 0 00-6.76084 7.387 56.74593 56.74593 0 008.93153-4.52812 96.08507 96.08507 0 008.14109-5.56972 97.78442 97.78442 0 007.54815-6.35052A57.41063 57.41063 0 00189.67054 452.09257zM191.97141 460.63858a74.84518 74.84518 0 00-9.33231 5.1794c-2.96291 1.89674-5.82952 3.90186-8.62436 5.99464-2.80286 2.08058-5.52815 4.24971-8.20529 6.49106-2.70478 2.22213-5.25976 4.53654-8.05816 6.8286a22.56406 22.56406 0 005.22543-1.52492 51.09919 51.09919 0 004.85229-2.336 79.64028 79.64028 0 008.91726-5.80278 91.94511 91.94511 0 008.101-6.83617A58.23834 58.23834 0 00191.97141 460.63858zM194.76535 469.51331a76.97482 76.97482 0 00-10.13389 4.81579c-3.2362 1.80283-6.377 3.73858-9.44555 5.77619q-4.60353 3.0555-8.985 6.42575-2.19008 1.68987-4.33826 3.44049a38.6594 38.6594 0 01-4.40379 3.37206 8.50666 8.50666 0 002.847-.489c.91749-.27172 1.80824-.6023 2.68917-.94613 1.757-.69749 3.45465-1.49528 5.11978-2.34066a97.16366 97.16366 0 009.59892-5.66267 109.72852 109.72852 0 008.93464-6.62147A67.91125 67.91125 0 00194.76535 469.51331zM163.66462 436.34348a45.42337 45.42337 0 00-1.30981-8.78875 76.3247 76.3247 0 00-2.526-8.34382 75.12473 75.12473 0 00-3.44707-8.00712 44.93362 44.93362 0 00-4.67485-7.558 44.939 44.939 0 001.30358 8.79087 75.12637 75.12637 0 002.53224 8.3417 76.42908 76.42908 0 003.45287 8.005A45.4236 45.4236 0 00163.66462 436.34348zM161.7164 446.60583a46.41548 46.41548 0 00-2.52244-8.62441 78.16038 78.16038 0 00-3.6682-8.02055 76.85922 76.85922 0 00-4.53575-7.56359 45.92029 45.92029 0 00-5.69266-6.954 45.92029 45.92029 0 002.51665 8.6273 76.952 76.952 0 003.674 8.01766 78.25471 78.25471 0 004.5411 7.56069A46.47355 46.47355 0 00161.7164 446.60583zM160.24207 456.52991a50.84133 50.84133 0 00-3.69226-8.65829 86.15746 86.15746 0 00-4.76535-7.93306 84.64689 84.64689 0 00-5.57808-7.38409 50.27191 50.27191 0 00-6.66142-6.65194 50.26715 50.26715 0 003.68736 8.6618 84.54071 84.54071 0 004.7707 7.92955 86.06345 86.06345 0 005.583 7.38069A50.84346 50.84346 0 00160.24207 456.52991zM159.16186 467.47882a65.55883 65.55883 0 00-5.28607-9.29269q-2.94708-4.39814-6.28916-8.47283-3.33093-4.08384-7.04794-7.85237a64.54129 64.54129 0 00-8.0604-7.02476 64.53544 64.53544 0 005.28117 9.29659q2.94708 4.39789 6.29361 8.46894 3.339 4.0779 7.05285 7.84846A65.47829 65.47829 0 00159.16186 467.47882zM158.28493 478.83237a66.20507 66.20507 0 00-6.25973-8.73492q-3.4065-4.08927-7.17277-7.81564-3.75558-3.73677-7.8629-7.12a65.20688 65.20688 0 00-8.78441-6.19186 65.20821 65.20821 0 006.25528 8.73927q3.4065 4.08885 7.17678 7.81129 3.76293 3.73 7.86736 7.11554A66.18176 66.18176 0 00158.28493 478.83237zM157.75129 486.1123a57.69951 57.69951 0 00-6.801-7.38431 98.30365 98.30365 0 00-7.582-6.351 96.56833 96.56833 0 00-8.17319-5.569 57.03694 57.03694 0 00-8.96229-4.52589 57.05162 57.05162 0 006.7974 7.38921 96.64019 96.64019 0 007.58559 6.34612 98.37492 98.37492 0 008.1772 5.56409A57.70988 57.70988 0 00157.75129 486.1123zM157.45883 492.19315a61.07909 61.07909 0 00-7.94537-6.60625q-4.16751-2.96262-8.58869-5.48178-4.41428-2.53155-9.07553-4.63088a60.362 60.362 0 00-9.72508-3.49577 60.37169 60.37169 0 007.9427 6.61154q4.16751 2.96229 8.59137 5.47643 4.41894 2.52345 9.07864 4.62559A61.08788 61.08788 0 00157.45883 492.19315zM157.68575 496.13742a65.9641 65.9641 0 00-9.29576-5.35428c-3.18938-1.53975-6.44118-2.91164-9.746-4.13976q-4.95661-1.84384-10.08664-3.22059a65.00368 65.00368 0 00-10.54182-1.99437 65.00424 65.00424 0 009.29353 5.36008q4.78474 2.30911 9.74826 4.134c3.30664 1.22332 6.66677 2.303 10.08887 3.21479A65.95554 65.95554 0 00157.68575 496.13742z" class="color50661a svgShape"></path><path fill="#24327c" d="M156.08833,495.82323c-.89941-1.499-22.083-36.80078-25.50977-45.93946l.85547-.32031c3.39649,9.05957,25.2168,45.42285,25.4375,45.78906Z" class="color5e7c24 svgShape"></path><path fill="#24327c" d="M138.35541 430.63965a39.22478 39.22478 0 00-2.10917 7.0694 66.0903 66.0903 0 00-1.078 7.16753 64.77427 64.77427 0 00-.29692 7.24176 38.69368 38.69368 0 00.74452 7.34079 38.72912 38.72912 0 002.11407-7.069 64.87792 64.87792 0 001.07308-7.168 66.08876 66.08876 0 00.292-7.24221A39.18861 39.18861 0 00138.35541 430.63965zM146.40867 441.65086a37.414 37.414 0 00-2.73688 6.66543 62.83643 62.83643 0 00-1.71952 6.86081 61.87376 61.87376 0 00-.94914 7.00877 37.00358 37.00358 0 00.07846 7.206 36.97 36.97 0 002.74178-6.66448 61.87578 61.87578 0 001.71462-6.86182 62.93556 62.93556 0 00.94424-7.00965A37.44768 37.44768 0 00146.40867 441.65086zM150.8459 454.46987a31.74548 31.74548 0 00-2.32984 6.19548 52.73742 52.73742 0 00-1.30358 6.34193 51.853 51.853 0 00-.5274 6.45272 31.34443 31.34443 0 00.50823 6.60056 31.34566 31.34566 0 002.33475-6.19481 51.76636 51.76636 0 001.29867-6.3426 52.73658 52.73658 0 00.5225-6.45344A31.71449 31.71449 0 00150.8459 454.46987zM156.43379 467.26519a24.30262 24.30262 0 00-2.36239 5.27241 39.60281 39.60281 0 00-1.341 5.44874 38.8702 38.8702 0 00-.56842 5.58215 24.02106 24.02106 0 00.46231 5.76014 24.00274 24.00274 0 002.3673-5.27158 38.93551 38.93551 0 001.33656-5.44957 39.66939 39.66939 0 00.56352-5.583A24.30226 24.30226 0 00156.43379 467.26519zM161.3641 475.26272a21.8797 21.8797 0 00-2.49391 4.62938 37.72728 37.72728 0 00-1.56795 4.80236 43.10871 43.10871 0 00-.94691 4.92484c-.10254.83591-.19661 1.66714-.259 2.51441a18.71258 18.71258 0 01-.27552 2.57461 5.05513 5.05513 0 00.60631-.38274l.49219-.49319a9.09966 9.09966 0 00.86087-1.07676 17.24651 17.24651 0 001.32364-2.30365 25.65209 25.65209 0 001.7369-4.85753 28.75207 28.75207 0 00.81764-5.05781A19.041 19.041 0 00161.3641 475.26272zM133.56688 455.52139a31.4531 31.4531 0 00-5.5549-4.8169 51.476 51.476 0 00-6.13981-3.66123 50.57222 50.57222 0 00-6.58295-2.78653 31.09314 31.09314 0 00-7.17322-1.61983 31.0853 31.0853 0 005.55177 4.82242 50.57781 50.57781 0 006.14294 3.65571 51.45479 51.45479 0 006.58562 2.781A31.45063 31.45063 0 00133.56688 455.52139zM139.02325 465.7129a38.74618 38.74618 0 00-6.85134-4.4851 64.51138 64.51138 0 00-7.307-3.27247 63.3563 63.3563 0 00-7.65158-2.35481 38.305 38.305 0 00-8.11122-1.13065 38.31273 38.31273 0 006.84866 4.49089 63.36644 63.36644 0 007.30919 3.26668 64.49734 64.49734 0 007.65381 2.349A38.74619 38.74619 0 00139.02325 465.7129zM145.44615 477.04115a33.04252 33.04252 0 00-6.17592-4.33024 54.30053 54.30053 0 00-6.64715-3.12351 53.33815 53.33815 0 00-7.00336-2.21026 32.65994 32.65994 0 00-7.4786-.992 32.67111 32.67111 0 006.17369 4.336 53.345 53.345 0 006.64938 3.11777 54.30713 54.30713 0 007.00559 2.20452A33.04083 33.04083 0 00145.44615 477.04115zM150.52224 485.76052a24.77034 24.77034 0 00-5.42427-3.57284 39.56 39.56 0 00-5.81124-2.33659 38.8501 38.8501 0 00-6.1046-1.4011 24.50794 24.50794 0 00-6.49512-.15308 24.506 24.506 0 005.42249 3.57869 38.84752 38.84752 0 005.81347 2.33074 39.53966 39.53966 0 006.10593 1.39513A24.78315 24.78315 0 00150.52224 485.76052z" class="color5e7c24 svgShape"></path><path fill="#24327c" d="M154.52925 493.5843a32.58033 32.58033 0 00-5.96237-4.5303 53.46986 53.46986 0 00-6.47685-3.34152 52.54041 52.54041 0 00-6.86649-2.442 32.21419 32.21419 0 00-7.38588-1.24182 32.20258 32.20258 0 005.9597 4.536 52.51878 52.51878 0 006.47953 3.33595 53.46085 53.46085 0 006.86872 2.43618A32.57986 32.57986 0 00154.52925 493.5843zM131.79386 451.183a22.93188 22.93188 0 00-.17788-7.3224 34.50392 34.50392 0 00-1.86575-6.66142 33.93683 33.93683 0 00-3.14436-6.16076 22.70256 22.70256 0 00-4.84917-5.49348 22.68936 22.68936 0 00.16941 7.32551 33.9671 33.9671 0 001.87378 6.6583 34.50588 34.50588 0 003.15283 6.15759A22.93517 22.93517 0 00131.79386 451.183z" class="color5e7c24 svgShape"></path></svg>